M48
; DRILL file {KiCad (5.1.6)-1} date 10/09/21 22:22:58
; FORMAT={-:-/ absolute / metric / decimal}
; #@! TF.CreationDate,2021-10-09T22:22:58+02:00
; #@! TF.GenerationSoftware,Kicad,Pcbnew,(5.1.6)-1
; #@! TF.FileFunction,Plated,1,2,PTH
FMAT,2
METRIC
T1C0.400
T2C0.600
T3C0.800
T4C1.000
T5C1.100
T6C2.500
%
G90
G05
T1
X104.137Y-83.82
X104.637Y-85.83
X107.815Y-97.645
X108.569Y-90.17
X116.862Y-79.887
X119.297Y-78.401
X129.124Y-72.359
T2
X127.0Y-104.14
X128.27Y-104.14
X129.54Y-104.14
T3
X106.68Y-68.58
X106.68Y-71.12
X106.68Y-73.66
X106.68Y-76.2
X106.68Y-78.74
X106.68Y-81.28
X106.68Y-83.82
X106.68Y-86.36
X106.68Y-88.9
X106.68Y-91.44
X106.68Y-93.98
X106.68Y-96.52
X106.68Y-99.06
X106.68Y-101.6
X121.92Y-68.58
X121.92Y-71.12
X121.92Y-73.66
X121.92Y-76.2
X121.92Y-78.74
X121.92Y-81.28
X121.92Y-83.82
X121.92Y-86.36
X121.92Y-88.9
X121.92Y-91.44
X121.92Y-93.98
X121.92Y-96.52
X121.92Y-99.06
X121.92Y-101.6
X134.62Y-104.14
X142.24Y-104.14
T4
X149.86Y-71.12
X149.86Y-73.66
X149.86Y-76.2
X149.86Y-78.74
X149.86Y-81.28
X149.86Y-83.82
X99.06Y-70.104
X99.06Y-72.644
X99.06Y-75.184
X99.06Y-77.724
X99.06Y-80.264
X99.06Y-82.804
X99.06Y-85.344
X99.06Y-87.884
X99.06Y-90.424
X99.06Y-92.964
X99.06Y-95.504
X99.06Y-98.044
X99.06Y-100.584
X101.6Y-70.104
X101.6Y-72.644
X101.6Y-75.184
X101.6Y-77.724
X101.6Y-80.264
X101.6Y-82.804
X101.6Y-85.344
X101.6Y-87.884
X101.6Y-90.424
X101.6Y-92.964
X101.6Y-95.504
X101.6Y-98.044
X101.6Y-100.584
X149.86Y-91.44
X149.86Y-93.98
X149.86Y-96.52
X149.86Y-99.06
T5
X127.0Y-69.85
X127.0Y-72.39
X127.0Y-74.93
X127.0Y-77.47
X127.0Y-80.01
X127.0Y-82.55
X127.0Y-85.09
X127.0Y-87.63
X127.0Y-90.17
X127.0Y-92.71
X127.0Y-95.25
X127.0Y-97.79
X142.24Y-69.85
X142.24Y-72.39
X142.24Y-74.93
X142.24Y-77.47
X142.24Y-80.01
X142.24Y-82.55
X142.24Y-85.09
X142.24Y-87.63
X142.24Y-90.17
X142.24Y-92.71
X142.24Y-95.25
X142.24Y-97.79
T6
X149.86Y-63.5
X99.06Y-106.68
X99.06Y-63.5
X149.86Y-106.68
T0
M30
