G04 #@! TF.GenerationSoftware,KiCad,Pcbnew,(5.1.6)-1*
G04 #@! TF.CreationDate,2021-10-09T22:21:21+02:00*
G04 #@! TF.ProjectId,kicad-c128keyb,6b696361-642d-4633-9132-386b6579622e,rev?*
G04 #@! TF.SameCoordinates,Original*
G04 #@! TF.FileFunction,Soldermask,Bot*
G04 #@! TF.FilePolarity,Negative*
%FSLAX46Y46*%
G04 Gerber Fmt 4.6, Leading zero omitted, Abs format (unit mm)*
G04 Created by KiCad (PCBNEW (5.1.6)-1) date 2021-10-09 22:21:21*
%MOMM*%
%LPD*%
G01*
G04 APERTURE LIST*
%ADD10C,5.100000*%
%ADD11R,1.800000X1.800000*%
%ADD12O,1.800000X1.800000*%
%ADD13C,1.700000*%
%ADD14R,1.700000X1.700000*%
%ADD15O,1.700000X1.700000*%
%ADD16O,1.000000X1.600000*%
%ADD17R,1.000000X1.600000*%
G04 APERTURE END LIST*
D10*
X99060000Y-106680000D03*
X149860000Y-106680000D03*
X149860000Y-63500000D03*
X99060000Y-63500000D03*
D11*
X99060000Y-70104000D03*
D12*
X101600000Y-70104000D03*
X99060000Y-72644000D03*
X101600000Y-72644000D03*
X99060000Y-75184000D03*
X101600000Y-75184000D03*
X99060000Y-77724000D03*
X101600000Y-77724000D03*
X99060000Y-80264000D03*
X101600000Y-80264000D03*
X99060000Y-82804000D03*
X101600000Y-82804000D03*
X99060000Y-85344000D03*
X101600000Y-85344000D03*
X99060000Y-87884000D03*
X101600000Y-87884000D03*
X99060000Y-90424000D03*
X101600000Y-90424000D03*
X99060000Y-92964000D03*
X101600000Y-92964000D03*
X99060000Y-95504000D03*
X101600000Y-95504000D03*
X99060000Y-98044000D03*
X101600000Y-98044000D03*
X99060000Y-100584000D03*
X101600000Y-100584000D03*
D13*
X142240000Y-69850000D03*
X142240000Y-72390000D03*
X142240000Y-74930000D03*
X142240000Y-77470000D03*
X142240000Y-80010000D03*
X142240000Y-82550000D03*
X142240000Y-85090000D03*
X142240000Y-87630000D03*
X142240000Y-90170000D03*
X142240000Y-92710000D03*
X142240000Y-95250000D03*
X142240000Y-97790000D03*
X127000000Y-97790000D03*
X127000000Y-95250000D03*
X127000000Y-92710000D03*
X127000000Y-90170000D03*
X127000000Y-87630000D03*
X127000000Y-85090000D03*
X127000000Y-82550000D03*
X127000000Y-80010000D03*
X127000000Y-77470000D03*
X127000000Y-74930000D03*
X127000000Y-72390000D03*
D14*
X127000000Y-69850000D03*
X106680000Y-68580000D03*
D15*
X121920000Y-101600000D03*
X106680000Y-71120000D03*
X121920000Y-99060000D03*
X106680000Y-73660000D03*
X121920000Y-96520000D03*
X106680000Y-76200000D03*
X121920000Y-93980000D03*
X106680000Y-78740000D03*
X121920000Y-91440000D03*
X106680000Y-81280000D03*
X121920000Y-88900000D03*
X106680000Y-83820000D03*
X121920000Y-86360000D03*
X106680000Y-86360000D03*
X121920000Y-83820000D03*
X106680000Y-88900000D03*
X121920000Y-81280000D03*
X106680000Y-91440000D03*
X121920000Y-78740000D03*
X106680000Y-93980000D03*
X121920000Y-76200000D03*
X106680000Y-96520000D03*
X121920000Y-73660000D03*
X106680000Y-99060000D03*
X121920000Y-71120000D03*
X106680000Y-101600000D03*
X121920000Y-68580000D03*
D13*
X142240000Y-104140000D03*
D15*
X134620000Y-104140000D03*
D16*
X128270000Y-104140000D03*
X129540000Y-104140000D03*
D17*
X127000000Y-104140000D03*
D11*
X149860000Y-71120000D03*
D12*
X149860000Y-73660000D03*
X149860000Y-76200000D03*
X149860000Y-78740000D03*
X149860000Y-81280000D03*
X149860000Y-83820000D03*
D11*
X149860000Y-91440000D03*
D12*
X149860000Y-93980000D03*
X149860000Y-96520000D03*
X149860000Y-99060000D03*
M02*
