G04 #@! TF.GenerationSoftware,KiCad,Pcbnew,(5.1.6)-1*
G04 #@! TF.CreationDate,2021-10-09T22:21:20+02:00*
G04 #@! TF.ProjectId,kicad-c128keyb,6b696361-642d-4633-9132-386b6579622e,rev?*
G04 #@! TF.SameCoordinates,Original*
G04 #@! TF.FileFunction,Copper,L1,Top*
G04 #@! TF.FilePolarity,Positive*
%FSLAX46Y46*%
G04 Gerber Fmt 4.6, Leading zero omitted, Abs format (unit mm)*
G04 Created by KiCad (PCBNEW (5.1.6)-1) date 2021-10-09 22:21:20*
%MOMM*%
%LPD*%
G01*
G04 APERTURE LIST*
G04 #@! TA.AperFunction,ComponentPad*
%ADD10C,5.000000*%
G04 #@! TD*
G04 #@! TA.AperFunction,ComponentPad*
%ADD11R,1.700000X1.700000*%
G04 #@! TD*
G04 #@! TA.AperFunction,ComponentPad*
%ADD12O,1.700000X1.700000*%
G04 #@! TD*
G04 #@! TA.AperFunction,ComponentPad*
%ADD13C,1.600000*%
G04 #@! TD*
G04 #@! TA.AperFunction,ComponentPad*
%ADD14R,1.600000X1.600000*%
G04 #@! TD*
G04 #@! TA.AperFunction,ComponentPad*
%ADD15O,1.600000X1.600000*%
G04 #@! TD*
G04 #@! TA.AperFunction,ComponentPad*
%ADD16O,0.900000X1.500000*%
G04 #@! TD*
G04 #@! TA.AperFunction,ComponentPad*
%ADD17R,0.900000X1.500000*%
G04 #@! TD*
G04 #@! TA.AperFunction,ViaPad*
%ADD18C,0.800000*%
G04 #@! TD*
G04 #@! TA.AperFunction,Conductor*
%ADD19C,0.250000*%
G04 #@! TD*
G04 #@! TA.AperFunction,Conductor*
%ADD20C,0.254000*%
G04 #@! TD*
G04 APERTURE END LIST*
D10*
X99060000Y-106680000D03*
X149860000Y-106680000D03*
X149860000Y-63500000D03*
X99060000Y-63500000D03*
D11*
X99060000Y-70104000D03*
D12*
X101600000Y-70104000D03*
X99060000Y-72644000D03*
X101600000Y-72644000D03*
X99060000Y-75184000D03*
X101600000Y-75184000D03*
X99060000Y-77724000D03*
X101600000Y-77724000D03*
X99060000Y-80264000D03*
X101600000Y-80264000D03*
X99060000Y-82804000D03*
X101600000Y-82804000D03*
X99060000Y-85344000D03*
X101600000Y-85344000D03*
X99060000Y-87884000D03*
X101600000Y-87884000D03*
X99060000Y-90424000D03*
X101600000Y-90424000D03*
X99060000Y-92964000D03*
X101600000Y-92964000D03*
X99060000Y-95504000D03*
X101600000Y-95504000D03*
X99060000Y-98044000D03*
X101600000Y-98044000D03*
X99060000Y-100584000D03*
X101600000Y-100584000D03*
D13*
X142240000Y-69850000D03*
X142240000Y-72390000D03*
X142240000Y-74930000D03*
X142240000Y-77470000D03*
X142240000Y-80010000D03*
X142240000Y-82550000D03*
X142240000Y-85090000D03*
X142240000Y-87630000D03*
X142240000Y-90170000D03*
X142240000Y-92710000D03*
X142240000Y-95250000D03*
X142240000Y-97790000D03*
X127000000Y-97790000D03*
X127000000Y-95250000D03*
X127000000Y-92710000D03*
X127000000Y-90170000D03*
X127000000Y-87630000D03*
X127000000Y-85090000D03*
X127000000Y-82550000D03*
X127000000Y-80010000D03*
X127000000Y-77470000D03*
X127000000Y-74930000D03*
X127000000Y-72390000D03*
D14*
X127000000Y-69850000D03*
X106680000Y-68580000D03*
D15*
X121920000Y-101600000D03*
X106680000Y-71120000D03*
X121920000Y-99060000D03*
X106680000Y-73660000D03*
X121920000Y-96520000D03*
X106680000Y-76200000D03*
X121920000Y-93980000D03*
X106680000Y-78740000D03*
X121920000Y-91440000D03*
X106680000Y-81280000D03*
X121920000Y-88900000D03*
X106680000Y-83820000D03*
X121920000Y-86360000D03*
X106680000Y-86360000D03*
X121920000Y-83820000D03*
X106680000Y-88900000D03*
X121920000Y-81280000D03*
X106680000Y-91440000D03*
X121920000Y-78740000D03*
X106680000Y-93980000D03*
X121920000Y-76200000D03*
X106680000Y-96520000D03*
X121920000Y-73660000D03*
X106680000Y-99060000D03*
X121920000Y-71120000D03*
X106680000Y-101600000D03*
X121920000Y-68580000D03*
D13*
X142240000Y-104140000D03*
D15*
X134620000Y-104140000D03*
D16*
X128270000Y-104140000D03*
X129540000Y-104140000D03*
D17*
X127000000Y-104140000D03*
D11*
X149860000Y-71120000D03*
D12*
X149860000Y-73660000D03*
X149860000Y-76200000D03*
X149860000Y-78740000D03*
X149860000Y-81280000D03*
X149860000Y-83820000D03*
D11*
X149860000Y-91440000D03*
D12*
X149860000Y-93980000D03*
X149860000Y-96520000D03*
X149860000Y-99060000D03*
D18*
X104637300Y-85829600D03*
X119297500Y-78401100D03*
X108568600Y-90170000D03*
X107814700Y-97645400D03*
X116861800Y-79887100D03*
X104136900Y-83820000D03*
X129123500Y-72359400D03*
D19*
X120794700Y-91440000D02*
X116984700Y-87630000D01*
X116984700Y-87630000D02*
X106349400Y-87630000D01*
X106349400Y-87630000D02*
X104637300Y-85917900D01*
X104637300Y-85917900D02*
X104637300Y-85829600D01*
X121920000Y-91440000D02*
X120794700Y-91440000D01*
X121920000Y-91440000D02*
X123045300Y-91440000D01*
X149860000Y-96520000D02*
X148684700Y-96520000D01*
X148684700Y-96520000D02*
X146289300Y-94124600D01*
X146289300Y-94124600D02*
X125729900Y-94124600D01*
X125729900Y-94124600D02*
X123045300Y-91440000D01*
X149860000Y-78740000D02*
X143510000Y-78740000D01*
X143510000Y-78740000D02*
X142240000Y-77470000D01*
X149860000Y-76200000D02*
X148684700Y-76200000D01*
X148684700Y-76200000D02*
X144874700Y-72390000D01*
X144874700Y-72390000D02*
X142240000Y-72390000D01*
X106680000Y-78740000D02*
X106680000Y-77614700D01*
X109075300Y-74930000D02*
X107805300Y-73660000D01*
X127000000Y-74930000D02*
X109075300Y-74930000D01*
X106680000Y-77614700D02*
X106961300Y-77614700D01*
X106961300Y-77614700D02*
X109075300Y-75500700D01*
X109075300Y-75500700D02*
X109075300Y-74930000D01*
X106680000Y-73660000D02*
X107805300Y-73660000D01*
X142240000Y-72390000D02*
X139700000Y-74930000D01*
X139700000Y-74930000D02*
X127000000Y-74930000D01*
X105554700Y-73660000D02*
X105554700Y-73609500D01*
X105554700Y-73609500D02*
X103224500Y-71279300D01*
X103224500Y-71279300D02*
X101043200Y-71279300D01*
X101043200Y-71279300D02*
X100235300Y-70471400D01*
X100235300Y-70471400D02*
X100235300Y-70104000D01*
X106680000Y-73660000D02*
X105554700Y-73660000D01*
X99060000Y-70104000D02*
X100235300Y-70104000D01*
X127000000Y-104140000D02*
X127000000Y-103064700D01*
X127000000Y-103064700D02*
X131004700Y-99060000D01*
X131004700Y-99060000D02*
X149860000Y-99060000D01*
X119297500Y-78401100D02*
X120906400Y-80010000D01*
X120906400Y-80010000D02*
X123598300Y-80010000D01*
X123598300Y-80010000D02*
X124723700Y-81135400D01*
X124723700Y-81135400D02*
X127198300Y-81135400D01*
X127198300Y-81135400D02*
X138772900Y-92710000D01*
X138772900Y-92710000D02*
X142240000Y-92710000D01*
X106680000Y-91440000D02*
X107805300Y-91440000D01*
X107805300Y-91440000D02*
X108930600Y-92565300D01*
X108930600Y-92565300D02*
X122129400Y-92565300D01*
X122129400Y-92565300D02*
X126084100Y-96520000D01*
X126084100Y-96520000D02*
X140970000Y-96520000D01*
X140970000Y-96520000D02*
X142240000Y-97790000D01*
X99060000Y-81439300D02*
X99427400Y-81439300D01*
X99427400Y-81439300D02*
X100235300Y-82247200D01*
X100235300Y-82247200D02*
X100235300Y-85687900D01*
X100235300Y-85687900D02*
X101066800Y-86519400D01*
X101066800Y-86519400D02*
X102687800Y-86519400D01*
X102687800Y-86519400D02*
X106338400Y-90170000D01*
X106338400Y-90170000D02*
X108568600Y-90170000D01*
X99060000Y-80264000D02*
X99060000Y-81439300D01*
X99060000Y-90424000D02*
X100235300Y-90424000D01*
X106680000Y-93980000D02*
X105554700Y-93980000D01*
X105554700Y-93980000D02*
X103174000Y-91599300D01*
X103174000Y-91599300D02*
X101043200Y-91599300D01*
X101043200Y-91599300D02*
X100235300Y-90791400D01*
X100235300Y-90791400D02*
X100235300Y-90424000D01*
X99060000Y-94139300D02*
X98692600Y-94139300D01*
X98692600Y-94139300D02*
X97434400Y-95397500D01*
X97434400Y-95397500D02*
X97434400Y-101305800D01*
X97434400Y-101305800D02*
X99317600Y-103189000D01*
X99317600Y-103189000D02*
X116665700Y-103189000D01*
X116665700Y-103189000D02*
X120794700Y-99060000D01*
X99060000Y-92964000D02*
X99060000Y-94139300D01*
X121920000Y-99060000D02*
X120794700Y-99060000D01*
X121920000Y-96520000D02*
X120794700Y-96520000D01*
X99060000Y-95504000D02*
X99060000Y-96679300D01*
X120794700Y-96520000D02*
X114576000Y-102738700D01*
X114576000Y-102738700D02*
X99504200Y-102738700D01*
X99504200Y-102738700D02*
X97884700Y-101119200D01*
X97884700Y-101119200D02*
X97884700Y-97553300D01*
X97884700Y-97553300D02*
X98758700Y-96679300D01*
X98758700Y-96679300D02*
X99060000Y-96679300D01*
X99060000Y-98044000D02*
X100235300Y-98044000D01*
X121920000Y-93980000D02*
X120794700Y-93980000D01*
X120794700Y-93980000D02*
X119669400Y-95105300D01*
X119669400Y-95105300D02*
X105460900Y-95105300D01*
X105460900Y-95105300D02*
X103697500Y-96868700D01*
X103697500Y-96868700D02*
X101043200Y-96868700D01*
X101043200Y-96868700D02*
X100235300Y-97676600D01*
X100235300Y-97676600D02*
X100235300Y-98044000D01*
X107814700Y-97645400D02*
X105460800Y-97645400D01*
X105460800Y-97645400D02*
X103697500Y-99408700D01*
X103697500Y-99408700D02*
X101043200Y-99408700D01*
X101043200Y-99408700D02*
X100235300Y-100216600D01*
X100235300Y-100216600D02*
X100235300Y-100584000D01*
X99060000Y-100584000D02*
X100235300Y-100584000D01*
X102775300Y-77724000D02*
X104938400Y-79887100D01*
X104938400Y-79887100D02*
X116861800Y-79887100D01*
X101600000Y-77724000D02*
X102775300Y-77724000D01*
X106680000Y-83820000D02*
X104136900Y-83820000D01*
X101600000Y-82804000D02*
X102775300Y-82804000D01*
X121920000Y-81280000D02*
X120794700Y-81280000D01*
X120794700Y-81280000D02*
X119669400Y-82405300D01*
X119669400Y-82405300D02*
X103174000Y-82405300D01*
X103174000Y-82405300D02*
X102775300Y-82804000D01*
X101600000Y-85344000D02*
X102775300Y-85344000D01*
X121920000Y-88900000D02*
X120794700Y-88900000D01*
X120794700Y-88900000D02*
X116959200Y-85064500D01*
X116959200Y-85064500D02*
X103054800Y-85064500D01*
X103054800Y-85064500D02*
X102775300Y-85344000D01*
X129123500Y-72359400D02*
X127030600Y-72359400D01*
X127030600Y-72359400D02*
X127000000Y-72390000D01*
X149860000Y-71120000D02*
X149860000Y-72295300D01*
X149860000Y-72295300D02*
X150227300Y-72295300D01*
X150227300Y-72295300D02*
X151061300Y-73129300D01*
X151061300Y-73129300D02*
X151061300Y-81741200D01*
X151061300Y-81741200D02*
X150252500Y-82550000D01*
X150252500Y-82550000D02*
X149370200Y-82550000D01*
X149370200Y-82550000D02*
X142240000Y-89680200D01*
X142240000Y-89680200D02*
X142240000Y-90170000D01*
X149860000Y-81280000D02*
X128270000Y-81280000D01*
X128270000Y-81280000D02*
X127000000Y-80010000D01*
X134620000Y-104140000D02*
X133494700Y-104140000D01*
X128270000Y-104140000D02*
X128270000Y-103064700D01*
X128270000Y-103064700D02*
X132419400Y-103064700D01*
X132419400Y-103064700D02*
X133494700Y-104140000D01*
D20*
G36*
X97575021Y-60721799D02*
G01*
X97061554Y-61064886D01*
X96624886Y-61501554D01*
X96281799Y-62015021D01*
X96045476Y-62585554D01*
X95925000Y-63191229D01*
X95925000Y-63808771D01*
X96045476Y-64414446D01*
X96281799Y-64984979D01*
X96624886Y-65498446D01*
X97061554Y-65935114D01*
X97575021Y-66278201D01*
X98145554Y-66514524D01*
X98751229Y-66635000D01*
X99368771Y-66635000D01*
X99974446Y-66514524D01*
X100544979Y-66278201D01*
X101058446Y-65935114D01*
X101495114Y-65498446D01*
X101838201Y-64984979D01*
X102074524Y-64414446D01*
X102195000Y-63808771D01*
X102195000Y-63191229D01*
X102074524Y-62585554D01*
X101838201Y-62015021D01*
X101495114Y-61501554D01*
X101058446Y-61064886D01*
X100544979Y-60721799D01*
X100395783Y-60660000D01*
X148524217Y-60660000D01*
X148375021Y-60721799D01*
X147861554Y-61064886D01*
X147424886Y-61501554D01*
X147081799Y-62015021D01*
X146845476Y-62585554D01*
X146725000Y-63191229D01*
X146725000Y-63808771D01*
X146845476Y-64414446D01*
X147081799Y-64984979D01*
X147424886Y-65498446D01*
X147861554Y-65935114D01*
X148375021Y-66278201D01*
X148945554Y-66514524D01*
X149551229Y-66635000D01*
X150168771Y-66635000D01*
X150774446Y-66514524D01*
X151344979Y-66278201D01*
X151858446Y-65935114D01*
X152295114Y-65498446D01*
X152638201Y-64984979D01*
X152874524Y-64414446D01*
X152995000Y-63808771D01*
X152995000Y-63191229D01*
X152874524Y-62585554D01*
X152638201Y-62015021D01*
X152295114Y-61501554D01*
X151858446Y-61064886D01*
X151344979Y-60721799D01*
X151195783Y-60660000D01*
X154340001Y-60660000D01*
X154340000Y-109340000D01*
X151521880Y-109340000D01*
X151858446Y-109115114D01*
X152295114Y-108678446D01*
X152638201Y-108164979D01*
X152874524Y-107594446D01*
X152995000Y-106988771D01*
X152995000Y-106371229D01*
X152874524Y-105765554D01*
X152638201Y-105195021D01*
X152295114Y-104681554D01*
X151858446Y-104244886D01*
X151344979Y-103901799D01*
X150774446Y-103665476D01*
X150168771Y-103545000D01*
X149551229Y-103545000D01*
X148945554Y-103665476D01*
X148375021Y-103901799D01*
X147861554Y-104244886D01*
X147424886Y-104681554D01*
X147081799Y-105195021D01*
X146845476Y-105765554D01*
X146725000Y-106371229D01*
X146725000Y-106988771D01*
X146845476Y-107594446D01*
X147081799Y-108164979D01*
X147424886Y-108678446D01*
X147861554Y-109115114D01*
X148198120Y-109340000D01*
X100721880Y-109340000D01*
X101058446Y-109115114D01*
X101495114Y-108678446D01*
X101838201Y-108164979D01*
X102074524Y-107594446D01*
X102195000Y-106988771D01*
X102195000Y-106371229D01*
X102074524Y-105765554D01*
X101838201Y-105195021D01*
X101634393Y-104890000D01*
X125911928Y-104890000D01*
X125924188Y-105014482D01*
X125960498Y-105134180D01*
X126019463Y-105244494D01*
X126098815Y-105341185D01*
X126195506Y-105420537D01*
X126305820Y-105479502D01*
X126425518Y-105515812D01*
X126550000Y-105528072D01*
X126714250Y-105525000D01*
X126873000Y-105366250D01*
X126873000Y-104267000D01*
X126073750Y-104267000D01*
X125915000Y-104425750D01*
X125911928Y-104890000D01*
X101634393Y-104890000D01*
X101495114Y-104681554D01*
X101058446Y-104244886D01*
X100615620Y-103949000D01*
X116628378Y-103949000D01*
X116665700Y-103952676D01*
X116703022Y-103949000D01*
X116703033Y-103949000D01*
X116814686Y-103938003D01*
X116957947Y-103894546D01*
X117089976Y-103823974D01*
X117205701Y-103729001D01*
X117229504Y-103699997D01*
X117539501Y-103390000D01*
X125911928Y-103390000D01*
X125915000Y-103854250D01*
X126073750Y-104013000D01*
X126873000Y-104013000D01*
X126873000Y-102913750D01*
X127127000Y-102913750D01*
X127127000Y-104013000D01*
X127147000Y-104013000D01*
X127147000Y-104267000D01*
X127127000Y-104267000D01*
X127127000Y-105366250D01*
X127285750Y-105525000D01*
X127450000Y-105528072D01*
X127574482Y-105515812D01*
X127694180Y-105479502D01*
X127803640Y-105420993D01*
X127852780Y-105447259D01*
X128057303Y-105509300D01*
X128270000Y-105530249D01*
X128482696Y-105509300D01*
X128687219Y-105447259D01*
X128875710Y-105346509D01*
X128905000Y-105322471D01*
X128934290Y-105346509D01*
X129122780Y-105447259D01*
X129327303Y-105509300D01*
X129540000Y-105530249D01*
X129752696Y-105509300D01*
X129957219Y-105447259D01*
X130145710Y-105346509D01*
X130310922Y-105210922D01*
X130446509Y-105045710D01*
X130547259Y-104857220D01*
X130609300Y-104652697D01*
X130625000Y-104493294D01*
X130625000Y-103824700D01*
X132104599Y-103824700D01*
X132930901Y-104651003D01*
X132954699Y-104680001D01*
X133070424Y-104774974D01*
X133202453Y-104845546D01*
X133345714Y-104889003D01*
X133398053Y-104894158D01*
X133505363Y-105054759D01*
X133705241Y-105254637D01*
X133940273Y-105411680D01*
X134201426Y-105519853D01*
X134478665Y-105575000D01*
X134761335Y-105575000D01*
X135038574Y-105519853D01*
X135299727Y-105411680D01*
X135534759Y-105254637D01*
X135734637Y-105054759D01*
X135891680Y-104819727D01*
X135999853Y-104558574D01*
X136055000Y-104281335D01*
X136055000Y-103998665D01*
X140805000Y-103998665D01*
X140805000Y-104281335D01*
X140860147Y-104558574D01*
X140968320Y-104819727D01*
X141125363Y-105054759D01*
X141325241Y-105254637D01*
X141560273Y-105411680D01*
X141821426Y-105519853D01*
X142098665Y-105575000D01*
X142381335Y-105575000D01*
X142658574Y-105519853D01*
X142919727Y-105411680D01*
X143154759Y-105254637D01*
X143354637Y-105054759D01*
X143511680Y-104819727D01*
X143619853Y-104558574D01*
X143675000Y-104281335D01*
X143675000Y-103998665D01*
X143619853Y-103721426D01*
X143511680Y-103460273D01*
X143354637Y-103225241D01*
X143154759Y-103025363D01*
X142919727Y-102868320D01*
X142658574Y-102760147D01*
X142381335Y-102705000D01*
X142098665Y-102705000D01*
X141821426Y-102760147D01*
X141560273Y-102868320D01*
X141325241Y-103025363D01*
X141125363Y-103225241D01*
X140968320Y-103460273D01*
X140860147Y-103721426D01*
X140805000Y-103998665D01*
X136055000Y-103998665D01*
X135999853Y-103721426D01*
X135891680Y-103460273D01*
X135734637Y-103225241D01*
X135534759Y-103025363D01*
X135299727Y-102868320D01*
X135038574Y-102760147D01*
X134761335Y-102705000D01*
X134478665Y-102705000D01*
X134201426Y-102760147D01*
X133940273Y-102868320D01*
X133705241Y-103025363D01*
X133580053Y-103150551D01*
X132983204Y-102553702D01*
X132959401Y-102524699D01*
X132843676Y-102429726D01*
X132711647Y-102359154D01*
X132568386Y-102315697D01*
X132456733Y-102304700D01*
X132456722Y-102304700D01*
X132419400Y-102301024D01*
X132382078Y-102304700D01*
X128307333Y-102304700D01*
X128270000Y-102301023D01*
X128232667Y-102304700D01*
X128121014Y-102315697D01*
X127977753Y-102359154D01*
X127845724Y-102429726D01*
X127729999Y-102524699D01*
X127635026Y-102640424D01*
X127569152Y-102763663D01*
X127450000Y-102751928D01*
X127285750Y-102755000D01*
X127127000Y-102913750D01*
X126873000Y-102913750D01*
X126714250Y-102755000D01*
X126550000Y-102751928D01*
X126425518Y-102764188D01*
X126305820Y-102800498D01*
X126195506Y-102859463D01*
X126098815Y-102938815D01*
X126019463Y-103035506D01*
X125960498Y-103145820D01*
X125924188Y-103265518D01*
X125911928Y-103390000D01*
X117539501Y-103390000D01*
X120880053Y-100049449D01*
X121005241Y-100174637D01*
X121237759Y-100330000D01*
X121005241Y-100485363D01*
X120805363Y-100685241D01*
X120648320Y-100920273D01*
X120540147Y-101181426D01*
X120485000Y-101458665D01*
X120485000Y-101741335D01*
X120540147Y-102018574D01*
X120648320Y-102279727D01*
X120805363Y-102514759D01*
X121005241Y-102714637D01*
X121240273Y-102871680D01*
X121501426Y-102979853D01*
X121778665Y-103035000D01*
X122061335Y-103035000D01*
X122338574Y-102979853D01*
X122599727Y-102871680D01*
X122834759Y-102714637D01*
X123034637Y-102514759D01*
X123191680Y-102279727D01*
X123299853Y-102018574D01*
X123355000Y-101741335D01*
X123355000Y-101458665D01*
X123299853Y-101181426D01*
X123191680Y-100920273D01*
X123034637Y-100685241D01*
X122834759Y-100485363D01*
X122602241Y-100330000D01*
X122834759Y-100174637D01*
X123034637Y-99974759D01*
X123191680Y-99739727D01*
X123299853Y-99478574D01*
X123312122Y-99416890D01*
X148418524Y-99416890D01*
X148463175Y-99564099D01*
X148588359Y-99826920D01*
X148762412Y-100060269D01*
X148978645Y-100255178D01*
X149228748Y-100404157D01*
X149503109Y-100501481D01*
X149733000Y-100380814D01*
X149733000Y-99187000D01*
X149987000Y-99187000D01*
X149987000Y-100380814D01*
X150216891Y-100501481D01*
X150491252Y-100404157D01*
X150741355Y-100255178D01*
X150957588Y-100060269D01*
X151131641Y-99826920D01*
X151256825Y-99564099D01*
X151301476Y-99416890D01*
X151180155Y-99187000D01*
X149987000Y-99187000D01*
X149733000Y-99187000D01*
X148539845Y-99187000D01*
X148418524Y-99416890D01*
X123312122Y-99416890D01*
X123355000Y-99201335D01*
X123355000Y-98918665D01*
X123299853Y-98641426D01*
X123191680Y-98380273D01*
X123034637Y-98145241D01*
X122834759Y-97945363D01*
X122602241Y-97790000D01*
X122834759Y-97634637D01*
X123034637Y-97434759D01*
X123191680Y-97199727D01*
X123299853Y-96938574D01*
X123355000Y-96661335D01*
X123355000Y-96378665D01*
X123299853Y-96101426D01*
X123191680Y-95840273D01*
X123034637Y-95605241D01*
X122834759Y-95405363D01*
X122602241Y-95250000D01*
X122834759Y-95094637D01*
X123034637Y-94894759D01*
X123174595Y-94685297D01*
X125520305Y-97031008D01*
X125544099Y-97060001D01*
X125573092Y-97083795D01*
X125573096Y-97083799D01*
X125628204Y-97129024D01*
X125659824Y-97154974D01*
X125700744Y-97176847D01*
X125620147Y-97371426D01*
X125565000Y-97648665D01*
X125565000Y-97931335D01*
X125620147Y-98208574D01*
X125728320Y-98469727D01*
X125885363Y-98704759D01*
X126085241Y-98904637D01*
X126320273Y-99061680D01*
X126581426Y-99169853D01*
X126858665Y-99225000D01*
X127141335Y-99225000D01*
X127418574Y-99169853D01*
X127679727Y-99061680D01*
X127914759Y-98904637D01*
X128114637Y-98704759D01*
X128271680Y-98469727D01*
X128379853Y-98208574D01*
X128435000Y-97931335D01*
X128435000Y-97648665D01*
X128379853Y-97371426D01*
X128341983Y-97280000D01*
X140655199Y-97280000D01*
X140841312Y-97466114D01*
X140805000Y-97648665D01*
X140805000Y-97931335D01*
X140860147Y-98208574D01*
X140968320Y-98469727D01*
X141125363Y-98704759D01*
X141325241Y-98904637D01*
X141560273Y-99061680D01*
X141821426Y-99169853D01*
X142098665Y-99225000D01*
X142381335Y-99225000D01*
X142658574Y-99169853D01*
X142919727Y-99061680D01*
X143154759Y-98904637D01*
X143354637Y-98704759D01*
X143511680Y-98469727D01*
X143619853Y-98208574D01*
X143675000Y-97931335D01*
X143675000Y-97648665D01*
X143619853Y-97371426D01*
X143511680Y-97110273D01*
X143354637Y-96875241D01*
X143154759Y-96675363D01*
X142922241Y-96520000D01*
X143154759Y-96364637D01*
X143354637Y-96164759D01*
X143511680Y-95929727D01*
X143619853Y-95668574D01*
X143675000Y-95391335D01*
X143675000Y-95108665D01*
X143630430Y-94884600D01*
X145974499Y-94884600D01*
X148120900Y-97031002D01*
X148144699Y-97060001D01*
X148260424Y-97154974D01*
X148392453Y-97225546D01*
X148535714Y-97269003D01*
X148577204Y-97273089D01*
X148706525Y-97466632D01*
X148913368Y-97673475D01*
X149095534Y-97795195D01*
X148978645Y-97864822D01*
X148762412Y-98059731D01*
X148588359Y-98293080D01*
X148463175Y-98555901D01*
X148418524Y-98703110D01*
X148539845Y-98933000D01*
X149733000Y-98933000D01*
X149733000Y-98913000D01*
X149987000Y-98913000D01*
X149987000Y-98933000D01*
X151180155Y-98933000D01*
X151301476Y-98703110D01*
X151256825Y-98555901D01*
X151131641Y-98293080D01*
X150957588Y-98059731D01*
X150741355Y-97864822D01*
X150624466Y-97795195D01*
X150806632Y-97673475D01*
X151013475Y-97466632D01*
X151175990Y-97223411D01*
X151287932Y-96953158D01*
X151345000Y-96666260D01*
X151345000Y-96373740D01*
X151287932Y-96086842D01*
X151175990Y-95816589D01*
X151013475Y-95573368D01*
X150806632Y-95366525D01*
X150632240Y-95250000D01*
X150806632Y-95133475D01*
X151013475Y-94926632D01*
X151175990Y-94683411D01*
X151287932Y-94413158D01*
X151345000Y-94126260D01*
X151345000Y-93833740D01*
X151287932Y-93546842D01*
X151175990Y-93276589D01*
X151013475Y-93033368D01*
X150881620Y-92901513D01*
X150954180Y-92879502D01*
X151064494Y-92820537D01*
X151161185Y-92741185D01*
X151240537Y-92644494D01*
X151299502Y-92534180D01*
X151335812Y-92414482D01*
X151348072Y-92290000D01*
X151348072Y-90590000D01*
X151335812Y-90465518D01*
X151299502Y-90345820D01*
X151240537Y-90235506D01*
X151161185Y-90138815D01*
X151064494Y-90059463D01*
X150954180Y-90000498D01*
X150834482Y-89964188D01*
X150710000Y-89951928D01*
X149010000Y-89951928D01*
X148885518Y-89964188D01*
X148765820Y-90000498D01*
X148655506Y-90059463D01*
X148558815Y-90138815D01*
X148479463Y-90235506D01*
X148420498Y-90345820D01*
X148384188Y-90465518D01*
X148371928Y-90590000D01*
X148371928Y-92290000D01*
X148384188Y-92414482D01*
X148420498Y-92534180D01*
X148479463Y-92644494D01*
X148558815Y-92741185D01*
X148655506Y-92820537D01*
X148765820Y-92879502D01*
X148838380Y-92901513D01*
X148706525Y-93033368D01*
X148544010Y-93276589D01*
X148432068Y-93546842D01*
X148375000Y-93833740D01*
X148375000Y-94126260D01*
X148432068Y-94413158D01*
X148544010Y-94683411D01*
X148706525Y-94926632D01*
X148913368Y-95133475D01*
X149087760Y-95250000D01*
X148913368Y-95366525D01*
X148759697Y-95520196D01*
X146853104Y-93613603D01*
X146829301Y-93584599D01*
X146713576Y-93489626D01*
X146581547Y-93419054D01*
X146438286Y-93375597D01*
X146326633Y-93364600D01*
X146326622Y-93364600D01*
X146289300Y-93360924D01*
X146251978Y-93364600D01*
X143522088Y-93364600D01*
X143619853Y-93128574D01*
X143675000Y-92851335D01*
X143675000Y-92568665D01*
X143619853Y-92291426D01*
X143511680Y-92030273D01*
X143354637Y-91795241D01*
X143154759Y-91595363D01*
X142922241Y-91440000D01*
X143154759Y-91284637D01*
X143354637Y-91084759D01*
X143511680Y-90849727D01*
X143619853Y-90588574D01*
X143675000Y-90311335D01*
X143675000Y-90028665D01*
X143619853Y-89751426D01*
X143511680Y-89490273D01*
X143508895Y-89486106D01*
X148522799Y-84472203D01*
X148544010Y-84523411D01*
X148706525Y-84766632D01*
X148913368Y-84973475D01*
X149156589Y-85135990D01*
X149426842Y-85247932D01*
X149713740Y-85305000D01*
X150006260Y-85305000D01*
X150293158Y-85247932D01*
X150563411Y-85135990D01*
X150806632Y-84973475D01*
X151013475Y-84766632D01*
X151175990Y-84523411D01*
X151287932Y-84253158D01*
X151345000Y-83966260D01*
X151345000Y-83673740D01*
X151287932Y-83386842D01*
X151175990Y-83116589D01*
X151013475Y-82873368D01*
X151008704Y-82868597D01*
X151572302Y-82304999D01*
X151601301Y-82281201D01*
X151646085Y-82226632D01*
X151696274Y-82165477D01*
X151766846Y-82033447D01*
X151773959Y-82009999D01*
X151810303Y-81890186D01*
X151821300Y-81778533D01*
X151821300Y-81778523D01*
X151824976Y-81741200D01*
X151821300Y-81703877D01*
X151821300Y-73166622D01*
X151824976Y-73129299D01*
X151821300Y-73091976D01*
X151821300Y-73091967D01*
X151810303Y-72980314D01*
X151766846Y-72837053D01*
X151754671Y-72814276D01*
X151696274Y-72705023D01*
X151625099Y-72618297D01*
X151601301Y-72589299D01*
X151572304Y-72565502D01*
X151272151Y-72265349D01*
X151299502Y-72214180D01*
X151335812Y-72094482D01*
X151348072Y-71970000D01*
X151348072Y-70270000D01*
X151335812Y-70145518D01*
X151299502Y-70025820D01*
X151240537Y-69915506D01*
X151161185Y-69818815D01*
X151064494Y-69739463D01*
X150954180Y-69680498D01*
X150834482Y-69644188D01*
X150710000Y-69631928D01*
X149010000Y-69631928D01*
X148885518Y-69644188D01*
X148765820Y-69680498D01*
X148655506Y-69739463D01*
X148558815Y-69818815D01*
X148479463Y-69915506D01*
X148420498Y-70025820D01*
X148384188Y-70145518D01*
X148371928Y-70270000D01*
X148371928Y-71970000D01*
X148384188Y-72094482D01*
X148420498Y-72214180D01*
X148479463Y-72324494D01*
X148558815Y-72421185D01*
X148655506Y-72500537D01*
X148765820Y-72559502D01*
X148838380Y-72581513D01*
X148706525Y-72713368D01*
X148544010Y-72956589D01*
X148432068Y-73226842D01*
X148375000Y-73513740D01*
X148375000Y-73806260D01*
X148432068Y-74093158D01*
X148544010Y-74363411D01*
X148706525Y-74606632D01*
X148913368Y-74813475D01*
X149095534Y-74935195D01*
X148978645Y-75004822D01*
X148762412Y-75199731D01*
X148588359Y-75433080D01*
X148463175Y-75695901D01*
X148418524Y-75843110D01*
X148539845Y-76073000D01*
X149733000Y-76073000D01*
X149733000Y-76053000D01*
X149987000Y-76053000D01*
X149987000Y-76073000D01*
X150007000Y-76073000D01*
X150007000Y-76327000D01*
X149987000Y-76327000D01*
X149987000Y-76347000D01*
X149733000Y-76347000D01*
X149733000Y-76327000D01*
X148539845Y-76327000D01*
X148418524Y-76556890D01*
X148463175Y-76704099D01*
X148588359Y-76966920D01*
X148762412Y-77200269D01*
X148978645Y-77395178D01*
X149095534Y-77464805D01*
X148913368Y-77586525D01*
X148706525Y-77793368D01*
X148581822Y-77980000D01*
X143824802Y-77980000D01*
X143638688Y-77793886D01*
X143675000Y-77611335D01*
X143675000Y-77328665D01*
X143619853Y-77051426D01*
X143511680Y-76790273D01*
X143354637Y-76555241D01*
X143154759Y-76355363D01*
X142922241Y-76200000D01*
X143154759Y-76044637D01*
X143354637Y-75844759D01*
X143511680Y-75609727D01*
X143619853Y-75348574D01*
X143675000Y-75071335D01*
X143675000Y-74788665D01*
X143619853Y-74511426D01*
X143511680Y-74250273D01*
X143354637Y-74015241D01*
X143154759Y-73815363D01*
X142920872Y-73659085D01*
X142981514Y-73626671D01*
X143053097Y-73382702D01*
X142240000Y-72569605D01*
X141426903Y-73382702D01*
X141498486Y-73626671D01*
X141562992Y-73657194D01*
X141560273Y-73658320D01*
X141325241Y-73815363D01*
X141125363Y-74015241D01*
X140968320Y-74250273D01*
X140860147Y-74511426D01*
X140805000Y-74788665D01*
X140805000Y-75071335D01*
X140860147Y-75348574D01*
X140968320Y-75609727D01*
X141125363Y-75844759D01*
X141325241Y-76044637D01*
X141557759Y-76200000D01*
X141325241Y-76355363D01*
X141125363Y-76555241D01*
X140968320Y-76790273D01*
X140860147Y-77051426D01*
X140805000Y-77328665D01*
X140805000Y-77611335D01*
X140860147Y-77888574D01*
X140968320Y-78149727D01*
X141125363Y-78384759D01*
X141325241Y-78584637D01*
X141557759Y-78740000D01*
X141325241Y-78895363D01*
X141125363Y-79095241D01*
X140968320Y-79330273D01*
X140860147Y-79591426D01*
X140805000Y-79868665D01*
X140805000Y-80151335D01*
X140860147Y-80428574D01*
X140898017Y-80520000D01*
X128584802Y-80520000D01*
X128398688Y-80333886D01*
X128435000Y-80151335D01*
X128435000Y-79868665D01*
X128379853Y-79591426D01*
X128271680Y-79330273D01*
X128114637Y-79095241D01*
X127914759Y-78895363D01*
X127680872Y-78739085D01*
X127741514Y-78706671D01*
X127813097Y-78462702D01*
X127000000Y-77649605D01*
X126186903Y-78462702D01*
X126258486Y-78706671D01*
X126322992Y-78737194D01*
X126320273Y-78738320D01*
X126085241Y-78895363D01*
X125885363Y-79095241D01*
X125728320Y-79330273D01*
X125620147Y-79591426D01*
X125565000Y-79868665D01*
X125565000Y-80151335D01*
X125609570Y-80375400D01*
X125038502Y-80375400D01*
X124162104Y-79499002D01*
X124138301Y-79469999D01*
X124022576Y-79375026D01*
X123890547Y-79304454D01*
X123747286Y-79260997D01*
X123635633Y-79250000D01*
X123635622Y-79250000D01*
X123598300Y-79246324D01*
X123560978Y-79250000D01*
X123261983Y-79250000D01*
X123299853Y-79158574D01*
X123355000Y-78881335D01*
X123355000Y-78598665D01*
X123299853Y-78321426D01*
X123191680Y-78060273D01*
X123034637Y-77825241D01*
X122834759Y-77625363D01*
X122707771Y-77540512D01*
X125559783Y-77540512D01*
X125601213Y-77820130D01*
X125696397Y-78086292D01*
X125763329Y-78211514D01*
X126007298Y-78283097D01*
X126820395Y-77470000D01*
X127179605Y-77470000D01*
X127992702Y-78283097D01*
X128236671Y-78211514D01*
X128357571Y-77956004D01*
X128426300Y-77681816D01*
X128440217Y-77399488D01*
X128398787Y-77119870D01*
X128303603Y-76853708D01*
X128236671Y-76728486D01*
X127992702Y-76656903D01*
X127179605Y-77470000D01*
X126820395Y-77470000D01*
X126007298Y-76656903D01*
X125763329Y-76728486D01*
X125642429Y-76983996D01*
X125573700Y-77258184D01*
X125559783Y-77540512D01*
X122707771Y-77540512D01*
X122602241Y-77470000D01*
X122834759Y-77314637D01*
X123034637Y-77114759D01*
X123191680Y-76879727D01*
X123299853Y-76618574D01*
X123355000Y-76341335D01*
X123355000Y-76058665D01*
X123327955Y-75922702D01*
X126186903Y-75922702D01*
X126258486Y-76166671D01*
X126324636Y-76197971D01*
X126258486Y-76233329D01*
X126186903Y-76477298D01*
X127000000Y-77290395D01*
X127813097Y-76477298D01*
X127741514Y-76233329D01*
X127675364Y-76202029D01*
X127741514Y-76166671D01*
X127813097Y-75922702D01*
X127000000Y-75109605D01*
X126186903Y-75922702D01*
X123327955Y-75922702D01*
X123299853Y-75781426D01*
X123191680Y-75520273D01*
X123034637Y-75285241D01*
X122834759Y-75085363D01*
X122707771Y-75000512D01*
X125559783Y-75000512D01*
X125601213Y-75280130D01*
X125696397Y-75546292D01*
X125763329Y-75671514D01*
X126007298Y-75743097D01*
X126820395Y-74930000D01*
X127179605Y-74930000D01*
X127992702Y-75743097D01*
X128236671Y-75671514D01*
X128357571Y-75416004D01*
X128426300Y-75141816D01*
X128440217Y-74859488D01*
X128398787Y-74579870D01*
X128303603Y-74313708D01*
X128236671Y-74188486D01*
X127992702Y-74116903D01*
X127179605Y-74930000D01*
X126820395Y-74930000D01*
X126007298Y-74116903D01*
X125763329Y-74188486D01*
X125642429Y-74443996D01*
X125573700Y-74718184D01*
X125559783Y-75000512D01*
X122707771Y-75000512D01*
X122602241Y-74930000D01*
X122834759Y-74774637D01*
X123034637Y-74574759D01*
X123191680Y-74339727D01*
X123299853Y-74078574D01*
X123355000Y-73801335D01*
X123355000Y-73518665D01*
X123299853Y-73241426D01*
X123191680Y-72980273D01*
X123034637Y-72745241D01*
X122834759Y-72545363D01*
X122602241Y-72390000D01*
X122834759Y-72234637D01*
X123034637Y-72034759D01*
X123191680Y-71799727D01*
X123299853Y-71538574D01*
X123355000Y-71261335D01*
X123355000Y-70978665D01*
X123299853Y-70701426D01*
X123191680Y-70440273D01*
X123034637Y-70205241D01*
X122834759Y-70005363D01*
X122602241Y-69850000D01*
X122834759Y-69694637D01*
X123034637Y-69494759D01*
X123191680Y-69259727D01*
X123278551Y-69050000D01*
X125561928Y-69050000D01*
X125561928Y-70650000D01*
X125574188Y-70774482D01*
X125610498Y-70894180D01*
X125669463Y-71004494D01*
X125748815Y-71101185D01*
X125845506Y-71180537D01*
X125955820Y-71239502D01*
X126075518Y-71275812D01*
X126083961Y-71276643D01*
X125885363Y-71475241D01*
X125728320Y-71710273D01*
X125620147Y-71971426D01*
X125565000Y-72248665D01*
X125565000Y-72531335D01*
X125620147Y-72808574D01*
X125728320Y-73069727D01*
X125885363Y-73304759D01*
X126085241Y-73504637D01*
X126319128Y-73660915D01*
X126258486Y-73693329D01*
X126186903Y-73937298D01*
X127000000Y-74750395D01*
X127813097Y-73937298D01*
X127741514Y-73693329D01*
X127677008Y-73662806D01*
X127679727Y-73661680D01*
X127914759Y-73504637D01*
X128114637Y-73304759D01*
X128238490Y-73119400D01*
X128419789Y-73119400D01*
X128463726Y-73163337D01*
X128633244Y-73276605D01*
X128821602Y-73354626D01*
X129021561Y-73394400D01*
X129225439Y-73394400D01*
X129425398Y-73354626D01*
X129613756Y-73276605D01*
X129783274Y-73163337D01*
X129927437Y-73019174D01*
X130040705Y-72849656D01*
X130118726Y-72661298D01*
X130158500Y-72461339D01*
X130158500Y-72460512D01*
X140799783Y-72460512D01*
X140841213Y-72740130D01*
X140936397Y-73006292D01*
X141003329Y-73131514D01*
X141247298Y-73203097D01*
X142060395Y-72390000D01*
X142419605Y-72390000D01*
X143232702Y-73203097D01*
X143476671Y-73131514D01*
X143597571Y-72876004D01*
X143666300Y-72601816D01*
X143680217Y-72319488D01*
X143638787Y-72039870D01*
X143543603Y-71773708D01*
X143476671Y-71648486D01*
X143232702Y-71576903D01*
X142419605Y-72390000D01*
X142060395Y-72390000D01*
X141247298Y-71576903D01*
X141003329Y-71648486D01*
X140882429Y-71903996D01*
X140813700Y-72178184D01*
X140799783Y-72460512D01*
X130158500Y-72460512D01*
X130158500Y-72257461D01*
X130118726Y-72057502D01*
X130040705Y-71869144D01*
X129927437Y-71699626D01*
X129783274Y-71555463D01*
X129613756Y-71442195D01*
X129425398Y-71364174D01*
X129225439Y-71324400D01*
X129021561Y-71324400D01*
X128821602Y-71364174D01*
X128633244Y-71442195D01*
X128463726Y-71555463D01*
X128419789Y-71599400D01*
X128197597Y-71599400D01*
X128114637Y-71475241D01*
X127916039Y-71276643D01*
X127924482Y-71275812D01*
X128044180Y-71239502D01*
X128154494Y-71180537D01*
X128251185Y-71101185D01*
X128330537Y-71004494D01*
X128389502Y-70894180D01*
X128425812Y-70774482D01*
X128438072Y-70650000D01*
X128438072Y-69708665D01*
X140805000Y-69708665D01*
X140805000Y-69991335D01*
X140860147Y-70268574D01*
X140968320Y-70529727D01*
X141125363Y-70764759D01*
X141325241Y-70964637D01*
X141559128Y-71120915D01*
X141498486Y-71153329D01*
X141426903Y-71397298D01*
X142240000Y-72210395D01*
X143053097Y-71397298D01*
X142981514Y-71153329D01*
X142917008Y-71122806D01*
X142919727Y-71121680D01*
X143154759Y-70964637D01*
X143354637Y-70764759D01*
X143511680Y-70529727D01*
X143619853Y-70268574D01*
X143675000Y-69991335D01*
X143675000Y-69708665D01*
X143619853Y-69431426D01*
X143511680Y-69170273D01*
X143354637Y-68935241D01*
X143154759Y-68735363D01*
X142919727Y-68578320D01*
X142658574Y-68470147D01*
X142381335Y-68415000D01*
X142098665Y-68415000D01*
X141821426Y-68470147D01*
X141560273Y-68578320D01*
X141325241Y-68735363D01*
X141125363Y-68935241D01*
X140968320Y-69170273D01*
X140860147Y-69431426D01*
X140805000Y-69708665D01*
X128438072Y-69708665D01*
X128438072Y-69050000D01*
X128425812Y-68925518D01*
X128389502Y-68805820D01*
X128330537Y-68695506D01*
X128251185Y-68598815D01*
X128154494Y-68519463D01*
X128044180Y-68460498D01*
X127924482Y-68424188D01*
X127800000Y-68411928D01*
X126200000Y-68411928D01*
X126075518Y-68424188D01*
X125955820Y-68460498D01*
X125845506Y-68519463D01*
X125748815Y-68598815D01*
X125669463Y-68695506D01*
X125610498Y-68805820D01*
X125574188Y-68925518D01*
X125561928Y-69050000D01*
X123278551Y-69050000D01*
X123299853Y-68998574D01*
X123355000Y-68721335D01*
X123355000Y-68438665D01*
X123299853Y-68161426D01*
X123191680Y-67900273D01*
X123034637Y-67665241D01*
X122834759Y-67465363D01*
X122599727Y-67308320D01*
X122338574Y-67200147D01*
X122061335Y-67145000D01*
X121778665Y-67145000D01*
X121501426Y-67200147D01*
X121240273Y-67308320D01*
X121005241Y-67465363D01*
X120805363Y-67665241D01*
X120648320Y-67900273D01*
X120540147Y-68161426D01*
X120485000Y-68438665D01*
X120485000Y-68721335D01*
X120540147Y-68998574D01*
X120648320Y-69259727D01*
X120805363Y-69494759D01*
X121005241Y-69694637D01*
X121237759Y-69850000D01*
X121005241Y-70005363D01*
X120805363Y-70205241D01*
X120648320Y-70440273D01*
X120540147Y-70701426D01*
X120485000Y-70978665D01*
X120485000Y-71261335D01*
X120540147Y-71538574D01*
X120648320Y-71799727D01*
X120805363Y-72034759D01*
X121005241Y-72234637D01*
X121237759Y-72390000D01*
X121005241Y-72545363D01*
X120805363Y-72745241D01*
X120648320Y-72980273D01*
X120540147Y-73241426D01*
X120485000Y-73518665D01*
X120485000Y-73801335D01*
X120540147Y-74078574D01*
X120648320Y-74339727D01*
X120805363Y-74574759D01*
X121005241Y-74774637D01*
X121237759Y-74930000D01*
X121005241Y-75085363D01*
X120805363Y-75285241D01*
X120648320Y-75520273D01*
X120540147Y-75781426D01*
X120485000Y-76058665D01*
X120485000Y-76341335D01*
X120540147Y-76618574D01*
X120648320Y-76879727D01*
X120805363Y-77114759D01*
X121005241Y-77314637D01*
X121237759Y-77470000D01*
X121005241Y-77625363D01*
X120805363Y-77825241D01*
X120648320Y-78060273D01*
X120540147Y-78321426D01*
X120499080Y-78527879D01*
X120332500Y-78361299D01*
X120332500Y-78299161D01*
X120292726Y-78099202D01*
X120214705Y-77910844D01*
X120101437Y-77741326D01*
X119957274Y-77597163D01*
X119787756Y-77483895D01*
X119599398Y-77405874D01*
X119399439Y-77366100D01*
X119195561Y-77366100D01*
X118995602Y-77405874D01*
X118807244Y-77483895D01*
X118637726Y-77597163D01*
X118493563Y-77741326D01*
X118380295Y-77910844D01*
X118302274Y-78099202D01*
X118262500Y-78299161D01*
X118262500Y-78503039D01*
X118302274Y-78702998D01*
X118380295Y-78891356D01*
X118493563Y-79060874D01*
X118637726Y-79205037D01*
X118807244Y-79318305D01*
X118995602Y-79396326D01*
X119195561Y-79436100D01*
X119257699Y-79436100D01*
X120342600Y-80521002D01*
X120366399Y-80550001D01*
X120438105Y-80608849D01*
X120370424Y-80645026D01*
X120254699Y-80739999D01*
X120230901Y-80768997D01*
X119354599Y-81645300D01*
X108070450Y-81645300D01*
X108115000Y-81421335D01*
X108115000Y-81138665D01*
X108059853Y-80861426D01*
X107971076Y-80647100D01*
X116158089Y-80647100D01*
X116202026Y-80691037D01*
X116371544Y-80804305D01*
X116559902Y-80882326D01*
X116759861Y-80922100D01*
X116963739Y-80922100D01*
X117163698Y-80882326D01*
X117352056Y-80804305D01*
X117521574Y-80691037D01*
X117665737Y-80546874D01*
X117779005Y-80377356D01*
X117857026Y-80188998D01*
X117896800Y-79989039D01*
X117896800Y-79785161D01*
X117857026Y-79585202D01*
X117779005Y-79396844D01*
X117665737Y-79227326D01*
X117521574Y-79083163D01*
X117352056Y-78969895D01*
X117163698Y-78891874D01*
X116963739Y-78852100D01*
X116759861Y-78852100D01*
X116559902Y-78891874D01*
X116371544Y-78969895D01*
X116202026Y-79083163D01*
X116158089Y-79127100D01*
X108060360Y-79127100D01*
X108071904Y-79089039D01*
X107949915Y-78867000D01*
X106807000Y-78867000D01*
X106807000Y-78887000D01*
X106553000Y-78887000D01*
X106553000Y-78867000D01*
X105410085Y-78867000D01*
X105288096Y-79089039D01*
X105299640Y-79127100D01*
X105253202Y-79127100D01*
X103339104Y-77213003D01*
X103315301Y-77183999D01*
X103199576Y-77089026D01*
X103067547Y-77018454D01*
X102924286Y-76974997D01*
X102882796Y-76970911D01*
X102753475Y-76777368D01*
X102546632Y-76570525D01*
X102372240Y-76454000D01*
X102546632Y-76337475D01*
X102753475Y-76130632D01*
X102801561Y-76058665D01*
X105245000Y-76058665D01*
X105245000Y-76341335D01*
X105300147Y-76618574D01*
X105408320Y-76879727D01*
X105565363Y-77114759D01*
X105765241Y-77314637D01*
X106000273Y-77471680D01*
X106010865Y-77476067D01*
X105824869Y-77587615D01*
X105616481Y-77776586D01*
X105448963Y-78002580D01*
X105328754Y-78256913D01*
X105288096Y-78390961D01*
X105410085Y-78613000D01*
X106553000Y-78613000D01*
X106553000Y-78593000D01*
X106807000Y-78593000D01*
X106807000Y-78613000D01*
X107949915Y-78613000D01*
X108071904Y-78390961D01*
X108031246Y-78256913D01*
X107911037Y-78002580D01*
X107743519Y-77776586D01*
X107535131Y-77587615D01*
X107349135Y-77476067D01*
X107359727Y-77471680D01*
X107594759Y-77314637D01*
X107794637Y-77114759D01*
X107951680Y-76879727D01*
X108059853Y-76618574D01*
X108115000Y-76341335D01*
X108115000Y-76058665D01*
X108059853Y-75781426D01*
X107951680Y-75520273D01*
X107794637Y-75285241D01*
X107594759Y-75085363D01*
X107359727Y-74928320D01*
X107349135Y-74923933D01*
X107535131Y-74812385D01*
X107743519Y-74623414D01*
X107911037Y-74397420D01*
X108031246Y-74143087D01*
X108071904Y-74009039D01*
X107949915Y-73787000D01*
X106807000Y-73787000D01*
X106807000Y-73807000D01*
X106553000Y-73807000D01*
X106553000Y-73787000D01*
X105410085Y-73787000D01*
X105288096Y-74009039D01*
X105328754Y-74143087D01*
X105448963Y-74397420D01*
X105616481Y-74623414D01*
X105824869Y-74812385D01*
X106010865Y-74923933D01*
X106000273Y-74928320D01*
X105765241Y-75085363D01*
X105565363Y-75285241D01*
X105408320Y-75520273D01*
X105300147Y-75781426D01*
X105245000Y-76058665D01*
X102801561Y-76058665D01*
X102915990Y-75887411D01*
X103027932Y-75617158D01*
X103085000Y-75330260D01*
X103085000Y-75037740D01*
X103027932Y-74750842D01*
X102915990Y-74480589D01*
X102753475Y-74237368D01*
X102546632Y-74030525D01*
X102372240Y-73914000D01*
X102546632Y-73797475D01*
X102753475Y-73590632D01*
X102915990Y-73347411D01*
X103027932Y-73077158D01*
X103085000Y-72790260D01*
X103085000Y-72497740D01*
X103027932Y-72210842D01*
X102915990Y-71940589D01*
X102753475Y-71697368D01*
X102546632Y-71490525D01*
X102372240Y-71374000D01*
X102546632Y-71257475D01*
X102753475Y-71050632D01*
X102915990Y-70807411D01*
X103027932Y-70537158D01*
X103085000Y-70250260D01*
X103085000Y-69957740D01*
X103027932Y-69670842D01*
X102915990Y-69400589D01*
X102753475Y-69157368D01*
X102546632Y-68950525D01*
X102303411Y-68788010D01*
X102033158Y-68676068D01*
X101746260Y-68619000D01*
X101453740Y-68619000D01*
X101166842Y-68676068D01*
X100896589Y-68788010D01*
X100653368Y-68950525D01*
X100521513Y-69082380D01*
X100499502Y-69009820D01*
X100440537Y-68899506D01*
X100361185Y-68802815D01*
X100264494Y-68723463D01*
X100154180Y-68664498D01*
X100034482Y-68628188D01*
X99910000Y-68615928D01*
X99345750Y-68619000D01*
X99187000Y-68777750D01*
X99187000Y-69977000D01*
X99207000Y-69977000D01*
X99207000Y-70231000D01*
X99187000Y-70231000D01*
X99187000Y-70251000D01*
X98933000Y-70251000D01*
X98933000Y-70231000D01*
X97733750Y-70231000D01*
X97575000Y-70389750D01*
X97571928Y-70954000D01*
X97584188Y-71078482D01*
X97620498Y-71198180D01*
X97679463Y-71308494D01*
X97758815Y-71405185D01*
X97855506Y-71484537D01*
X97965820Y-71543502D01*
X98038380Y-71565513D01*
X97906525Y-71697368D01*
X97744010Y-71940589D01*
X97632068Y-72210842D01*
X97575000Y-72497740D01*
X97575000Y-72790260D01*
X97632068Y-73077158D01*
X97744010Y-73347411D01*
X97906525Y-73590632D01*
X98113368Y-73797475D01*
X98287760Y-73914000D01*
X98113368Y-74030525D01*
X97906525Y-74237368D01*
X97744010Y-74480589D01*
X97632068Y-74750842D01*
X97575000Y-75037740D01*
X97575000Y-75330260D01*
X97632068Y-75617158D01*
X97744010Y-75887411D01*
X97906525Y-76130632D01*
X98113368Y-76337475D01*
X98287760Y-76454000D01*
X98113368Y-76570525D01*
X97906525Y-76777368D01*
X97744010Y-77020589D01*
X97632068Y-77290842D01*
X97575000Y-77577740D01*
X97575000Y-77870260D01*
X97632068Y-78157158D01*
X97744010Y-78427411D01*
X97906525Y-78670632D01*
X98113368Y-78877475D01*
X98287760Y-78994000D01*
X98113368Y-79110525D01*
X97906525Y-79317368D01*
X97744010Y-79560589D01*
X97632068Y-79830842D01*
X97575000Y-80117740D01*
X97575000Y-80410260D01*
X97632068Y-80697158D01*
X97744010Y-80967411D01*
X97906525Y-81210632D01*
X98113368Y-81417475D01*
X98287760Y-81534000D01*
X98113368Y-81650525D01*
X97906525Y-81857368D01*
X97744010Y-82100589D01*
X97632068Y-82370842D01*
X97575000Y-82657740D01*
X97575000Y-82950260D01*
X97632068Y-83237158D01*
X97744010Y-83507411D01*
X97906525Y-83750632D01*
X98113368Y-83957475D01*
X98287760Y-84074000D01*
X98113368Y-84190525D01*
X97906525Y-84397368D01*
X97744010Y-84640589D01*
X97632068Y-84910842D01*
X97575000Y-85197740D01*
X97575000Y-85490260D01*
X97632068Y-85777158D01*
X97744010Y-86047411D01*
X97906525Y-86290632D01*
X98113368Y-86497475D01*
X98287760Y-86614000D01*
X98113368Y-86730525D01*
X97906525Y-86937368D01*
X97744010Y-87180589D01*
X97632068Y-87450842D01*
X97575000Y-87737740D01*
X97575000Y-88030260D01*
X97632068Y-88317158D01*
X97744010Y-88587411D01*
X97906525Y-88830632D01*
X98113368Y-89037475D01*
X98287760Y-89154000D01*
X98113368Y-89270525D01*
X97906525Y-89477368D01*
X97744010Y-89720589D01*
X97632068Y-89990842D01*
X97575000Y-90277740D01*
X97575000Y-90570260D01*
X97632068Y-90857158D01*
X97744010Y-91127411D01*
X97906525Y-91370632D01*
X98113368Y-91577475D01*
X98287760Y-91694000D01*
X98113368Y-91810525D01*
X97906525Y-92017368D01*
X97744010Y-92260589D01*
X97632068Y-92530842D01*
X97575000Y-92817740D01*
X97575000Y-93110260D01*
X97632068Y-93397158D01*
X97744010Y-93667411D01*
X97882469Y-93874629D01*
X96923403Y-94833696D01*
X96894399Y-94857499D01*
X96857077Y-94902977D01*
X96799426Y-94973224D01*
X96766406Y-95035000D01*
X96728854Y-95105254D01*
X96685397Y-95248515D01*
X96674400Y-95360168D01*
X96674400Y-95360178D01*
X96670724Y-95397500D01*
X96674400Y-95434823D01*
X96674401Y-101268468D01*
X96670724Y-101305800D01*
X96674401Y-101343133D01*
X96681130Y-101411447D01*
X96685398Y-101454785D01*
X96728854Y-101598046D01*
X96799426Y-101730076D01*
X96870601Y-101816802D01*
X96894400Y-101845801D01*
X96923398Y-101869599D01*
X98624088Y-103570290D01*
X98145554Y-103665476D01*
X97575021Y-103901799D01*
X97061554Y-104244886D01*
X96624886Y-104681554D01*
X96281799Y-105195021D01*
X96045476Y-105765554D01*
X95925000Y-106371229D01*
X95925000Y-106988771D01*
X96045476Y-107594446D01*
X96281799Y-108164979D01*
X96624886Y-108678446D01*
X97061554Y-109115114D01*
X97398120Y-109340000D01*
X95660000Y-109340000D01*
X95660000Y-69254000D01*
X97571928Y-69254000D01*
X97575000Y-69818250D01*
X97733750Y-69977000D01*
X98933000Y-69977000D01*
X98933000Y-68777750D01*
X98774250Y-68619000D01*
X98210000Y-68615928D01*
X98085518Y-68628188D01*
X97965820Y-68664498D01*
X97855506Y-68723463D01*
X97758815Y-68802815D01*
X97679463Y-68899506D01*
X97620498Y-69009820D01*
X97584188Y-69129518D01*
X97571928Y-69254000D01*
X95660000Y-69254000D01*
X95660000Y-67780000D01*
X105241928Y-67780000D01*
X105241928Y-69380000D01*
X105254188Y-69504482D01*
X105290498Y-69624180D01*
X105349463Y-69734494D01*
X105428815Y-69831185D01*
X105525506Y-69910537D01*
X105635820Y-69969502D01*
X105755518Y-70005812D01*
X105763961Y-70006643D01*
X105565363Y-70205241D01*
X105408320Y-70440273D01*
X105300147Y-70701426D01*
X105245000Y-70978665D01*
X105245000Y-71261335D01*
X105300147Y-71538574D01*
X105408320Y-71799727D01*
X105565363Y-72034759D01*
X105765241Y-72234637D01*
X106000273Y-72391680D01*
X106010865Y-72396067D01*
X105824869Y-72507615D01*
X105616481Y-72696586D01*
X105448963Y-72922580D01*
X105328754Y-73176913D01*
X105288096Y-73310961D01*
X105410085Y-73533000D01*
X106553000Y-73533000D01*
X106553000Y-73513000D01*
X106807000Y-73513000D01*
X106807000Y-73533000D01*
X107949915Y-73533000D01*
X108071904Y-73310961D01*
X108031246Y-73176913D01*
X107911037Y-72922580D01*
X107743519Y-72696586D01*
X107535131Y-72507615D01*
X107349135Y-72396067D01*
X107359727Y-72391680D01*
X107594759Y-72234637D01*
X107794637Y-72034759D01*
X107951680Y-71799727D01*
X108059853Y-71538574D01*
X108115000Y-71261335D01*
X108115000Y-70978665D01*
X108059853Y-70701426D01*
X107951680Y-70440273D01*
X107794637Y-70205241D01*
X107596039Y-70006643D01*
X107604482Y-70005812D01*
X107724180Y-69969502D01*
X107834494Y-69910537D01*
X107931185Y-69831185D01*
X108010537Y-69734494D01*
X108069502Y-69624180D01*
X108105812Y-69504482D01*
X108118072Y-69380000D01*
X108118072Y-67780000D01*
X108105812Y-67655518D01*
X108069502Y-67535820D01*
X108010537Y-67425506D01*
X107931185Y-67328815D01*
X107834494Y-67249463D01*
X107724180Y-67190498D01*
X107604482Y-67154188D01*
X107480000Y-67141928D01*
X105880000Y-67141928D01*
X105755518Y-67154188D01*
X105635820Y-67190498D01*
X105525506Y-67249463D01*
X105428815Y-67328815D01*
X105349463Y-67425506D01*
X105290498Y-67535820D01*
X105254188Y-67655518D01*
X105241928Y-67780000D01*
X95660000Y-67780000D01*
X95660000Y-60660000D01*
X97724217Y-60660000D01*
X97575021Y-60721799D01*
G37*
X97575021Y-60721799D02*
X97061554Y-61064886D01*
X96624886Y-61501554D01*
X96281799Y-62015021D01*
X96045476Y-62585554D01*
X95925000Y-63191229D01*
X95925000Y-63808771D01*
X96045476Y-64414446D01*
X96281799Y-64984979D01*
X96624886Y-65498446D01*
X97061554Y-65935114D01*
X97575021Y-66278201D01*
X98145554Y-66514524D01*
X98751229Y-66635000D01*
X99368771Y-66635000D01*
X99974446Y-66514524D01*
X100544979Y-66278201D01*
X101058446Y-65935114D01*
X101495114Y-65498446D01*
X101838201Y-64984979D01*
X102074524Y-64414446D01*
X102195000Y-63808771D01*
X102195000Y-63191229D01*
X102074524Y-62585554D01*
X101838201Y-62015021D01*
X101495114Y-61501554D01*
X101058446Y-61064886D01*
X100544979Y-60721799D01*
X100395783Y-60660000D01*
X148524217Y-60660000D01*
X148375021Y-60721799D01*
X147861554Y-61064886D01*
X147424886Y-61501554D01*
X147081799Y-62015021D01*
X146845476Y-62585554D01*
X146725000Y-63191229D01*
X146725000Y-63808771D01*
X146845476Y-64414446D01*
X147081799Y-64984979D01*
X147424886Y-65498446D01*
X147861554Y-65935114D01*
X148375021Y-66278201D01*
X148945554Y-66514524D01*
X149551229Y-66635000D01*
X150168771Y-66635000D01*
X150774446Y-66514524D01*
X151344979Y-66278201D01*
X151858446Y-65935114D01*
X152295114Y-65498446D01*
X152638201Y-64984979D01*
X152874524Y-64414446D01*
X152995000Y-63808771D01*
X152995000Y-63191229D01*
X152874524Y-62585554D01*
X152638201Y-62015021D01*
X152295114Y-61501554D01*
X151858446Y-61064886D01*
X151344979Y-60721799D01*
X151195783Y-60660000D01*
X154340001Y-60660000D01*
X154340000Y-109340000D01*
X151521880Y-109340000D01*
X151858446Y-109115114D01*
X152295114Y-108678446D01*
X152638201Y-108164979D01*
X152874524Y-107594446D01*
X152995000Y-106988771D01*
X152995000Y-106371229D01*
X152874524Y-105765554D01*
X152638201Y-105195021D01*
X152295114Y-104681554D01*
X151858446Y-104244886D01*
X151344979Y-103901799D01*
X150774446Y-103665476D01*
X150168771Y-103545000D01*
X149551229Y-103545000D01*
X148945554Y-103665476D01*
X148375021Y-103901799D01*
X147861554Y-104244886D01*
X147424886Y-104681554D01*
X147081799Y-105195021D01*
X146845476Y-105765554D01*
X146725000Y-106371229D01*
X146725000Y-106988771D01*
X146845476Y-107594446D01*
X147081799Y-108164979D01*
X147424886Y-108678446D01*
X147861554Y-109115114D01*
X148198120Y-109340000D01*
X100721880Y-109340000D01*
X101058446Y-109115114D01*
X101495114Y-108678446D01*
X101838201Y-108164979D01*
X102074524Y-107594446D01*
X102195000Y-106988771D01*
X102195000Y-106371229D01*
X102074524Y-105765554D01*
X101838201Y-105195021D01*
X101634393Y-104890000D01*
X125911928Y-104890000D01*
X125924188Y-105014482D01*
X125960498Y-105134180D01*
X126019463Y-105244494D01*
X126098815Y-105341185D01*
X126195506Y-105420537D01*
X126305820Y-105479502D01*
X126425518Y-105515812D01*
X126550000Y-105528072D01*
X126714250Y-105525000D01*
X126873000Y-105366250D01*
X126873000Y-104267000D01*
X126073750Y-104267000D01*
X125915000Y-104425750D01*
X125911928Y-104890000D01*
X101634393Y-104890000D01*
X101495114Y-104681554D01*
X101058446Y-104244886D01*
X100615620Y-103949000D01*
X116628378Y-103949000D01*
X116665700Y-103952676D01*
X116703022Y-103949000D01*
X116703033Y-103949000D01*
X116814686Y-103938003D01*
X116957947Y-103894546D01*
X117089976Y-103823974D01*
X117205701Y-103729001D01*
X117229504Y-103699997D01*
X117539501Y-103390000D01*
X125911928Y-103390000D01*
X125915000Y-103854250D01*
X126073750Y-104013000D01*
X126873000Y-104013000D01*
X126873000Y-102913750D01*
X127127000Y-102913750D01*
X127127000Y-104013000D01*
X127147000Y-104013000D01*
X127147000Y-104267000D01*
X127127000Y-104267000D01*
X127127000Y-105366250D01*
X127285750Y-105525000D01*
X127450000Y-105528072D01*
X127574482Y-105515812D01*
X127694180Y-105479502D01*
X127803640Y-105420993D01*
X127852780Y-105447259D01*
X128057303Y-105509300D01*
X128270000Y-105530249D01*
X128482696Y-105509300D01*
X128687219Y-105447259D01*
X128875710Y-105346509D01*
X128905000Y-105322471D01*
X128934290Y-105346509D01*
X129122780Y-105447259D01*
X129327303Y-105509300D01*
X129540000Y-105530249D01*
X129752696Y-105509300D01*
X129957219Y-105447259D01*
X130145710Y-105346509D01*
X130310922Y-105210922D01*
X130446509Y-105045710D01*
X130547259Y-104857220D01*
X130609300Y-104652697D01*
X130625000Y-104493294D01*
X130625000Y-103824700D01*
X132104599Y-103824700D01*
X132930901Y-104651003D01*
X132954699Y-104680001D01*
X133070424Y-104774974D01*
X133202453Y-104845546D01*
X133345714Y-104889003D01*
X133398053Y-104894158D01*
X133505363Y-105054759D01*
X133705241Y-105254637D01*
X133940273Y-105411680D01*
X134201426Y-105519853D01*
X134478665Y-105575000D01*
X134761335Y-105575000D01*
X135038574Y-105519853D01*
X135299727Y-105411680D01*
X135534759Y-105254637D01*
X135734637Y-105054759D01*
X135891680Y-104819727D01*
X135999853Y-104558574D01*
X136055000Y-104281335D01*
X136055000Y-103998665D01*
X140805000Y-103998665D01*
X140805000Y-104281335D01*
X140860147Y-104558574D01*
X140968320Y-104819727D01*
X141125363Y-105054759D01*
X141325241Y-105254637D01*
X141560273Y-105411680D01*
X141821426Y-105519853D01*
X142098665Y-105575000D01*
X142381335Y-105575000D01*
X142658574Y-105519853D01*
X142919727Y-105411680D01*
X143154759Y-105254637D01*
X143354637Y-105054759D01*
X143511680Y-104819727D01*
X143619853Y-104558574D01*
X143675000Y-104281335D01*
X143675000Y-103998665D01*
X143619853Y-103721426D01*
X143511680Y-103460273D01*
X143354637Y-103225241D01*
X143154759Y-103025363D01*
X142919727Y-102868320D01*
X142658574Y-102760147D01*
X142381335Y-102705000D01*
X142098665Y-102705000D01*
X141821426Y-102760147D01*
X141560273Y-102868320D01*
X141325241Y-103025363D01*
X141125363Y-103225241D01*
X140968320Y-103460273D01*
X140860147Y-103721426D01*
X140805000Y-103998665D01*
X136055000Y-103998665D01*
X135999853Y-103721426D01*
X135891680Y-103460273D01*
X135734637Y-103225241D01*
X135534759Y-103025363D01*
X135299727Y-102868320D01*
X135038574Y-102760147D01*
X134761335Y-102705000D01*
X134478665Y-102705000D01*
X134201426Y-102760147D01*
X133940273Y-102868320D01*
X133705241Y-103025363D01*
X133580053Y-103150551D01*
X132983204Y-102553702D01*
X132959401Y-102524699D01*
X132843676Y-102429726D01*
X132711647Y-102359154D01*
X132568386Y-102315697D01*
X132456733Y-102304700D01*
X132456722Y-102304700D01*
X132419400Y-102301024D01*
X132382078Y-102304700D01*
X128307333Y-102304700D01*
X128270000Y-102301023D01*
X128232667Y-102304700D01*
X128121014Y-102315697D01*
X127977753Y-102359154D01*
X127845724Y-102429726D01*
X127729999Y-102524699D01*
X127635026Y-102640424D01*
X127569152Y-102763663D01*
X127450000Y-102751928D01*
X127285750Y-102755000D01*
X127127000Y-102913750D01*
X126873000Y-102913750D01*
X126714250Y-102755000D01*
X126550000Y-102751928D01*
X126425518Y-102764188D01*
X126305820Y-102800498D01*
X126195506Y-102859463D01*
X126098815Y-102938815D01*
X126019463Y-103035506D01*
X125960498Y-103145820D01*
X125924188Y-103265518D01*
X125911928Y-103390000D01*
X117539501Y-103390000D01*
X120880053Y-100049449D01*
X121005241Y-100174637D01*
X121237759Y-100330000D01*
X121005241Y-100485363D01*
X120805363Y-100685241D01*
X120648320Y-100920273D01*
X120540147Y-101181426D01*
X120485000Y-101458665D01*
X120485000Y-101741335D01*
X120540147Y-102018574D01*
X120648320Y-102279727D01*
X120805363Y-102514759D01*
X121005241Y-102714637D01*
X121240273Y-102871680D01*
X121501426Y-102979853D01*
X121778665Y-103035000D01*
X122061335Y-103035000D01*
X122338574Y-102979853D01*
X122599727Y-102871680D01*
X122834759Y-102714637D01*
X123034637Y-102514759D01*
X123191680Y-102279727D01*
X123299853Y-102018574D01*
X123355000Y-101741335D01*
X123355000Y-101458665D01*
X123299853Y-101181426D01*
X123191680Y-100920273D01*
X123034637Y-100685241D01*
X122834759Y-100485363D01*
X122602241Y-100330000D01*
X122834759Y-100174637D01*
X123034637Y-99974759D01*
X123191680Y-99739727D01*
X123299853Y-99478574D01*
X123312122Y-99416890D01*
X148418524Y-99416890D01*
X148463175Y-99564099D01*
X148588359Y-99826920D01*
X148762412Y-100060269D01*
X148978645Y-100255178D01*
X149228748Y-100404157D01*
X149503109Y-100501481D01*
X149733000Y-100380814D01*
X149733000Y-99187000D01*
X149987000Y-99187000D01*
X149987000Y-100380814D01*
X150216891Y-100501481D01*
X150491252Y-100404157D01*
X150741355Y-100255178D01*
X150957588Y-100060269D01*
X151131641Y-99826920D01*
X151256825Y-99564099D01*
X151301476Y-99416890D01*
X151180155Y-99187000D01*
X149987000Y-99187000D01*
X149733000Y-99187000D01*
X148539845Y-99187000D01*
X148418524Y-99416890D01*
X123312122Y-99416890D01*
X123355000Y-99201335D01*
X123355000Y-98918665D01*
X123299853Y-98641426D01*
X123191680Y-98380273D01*
X123034637Y-98145241D01*
X122834759Y-97945363D01*
X122602241Y-97790000D01*
X122834759Y-97634637D01*
X123034637Y-97434759D01*
X123191680Y-97199727D01*
X123299853Y-96938574D01*
X123355000Y-96661335D01*
X123355000Y-96378665D01*
X123299853Y-96101426D01*
X123191680Y-95840273D01*
X123034637Y-95605241D01*
X122834759Y-95405363D01*
X122602241Y-95250000D01*
X122834759Y-95094637D01*
X123034637Y-94894759D01*
X123174595Y-94685297D01*
X125520305Y-97031008D01*
X125544099Y-97060001D01*
X125573092Y-97083795D01*
X125573096Y-97083799D01*
X125628204Y-97129024D01*
X125659824Y-97154974D01*
X125700744Y-97176847D01*
X125620147Y-97371426D01*
X125565000Y-97648665D01*
X125565000Y-97931335D01*
X125620147Y-98208574D01*
X125728320Y-98469727D01*
X125885363Y-98704759D01*
X126085241Y-98904637D01*
X126320273Y-99061680D01*
X126581426Y-99169853D01*
X126858665Y-99225000D01*
X127141335Y-99225000D01*
X127418574Y-99169853D01*
X127679727Y-99061680D01*
X127914759Y-98904637D01*
X128114637Y-98704759D01*
X128271680Y-98469727D01*
X128379853Y-98208574D01*
X128435000Y-97931335D01*
X128435000Y-97648665D01*
X128379853Y-97371426D01*
X128341983Y-97280000D01*
X140655199Y-97280000D01*
X140841312Y-97466114D01*
X140805000Y-97648665D01*
X140805000Y-97931335D01*
X140860147Y-98208574D01*
X140968320Y-98469727D01*
X141125363Y-98704759D01*
X141325241Y-98904637D01*
X141560273Y-99061680D01*
X141821426Y-99169853D01*
X142098665Y-99225000D01*
X142381335Y-99225000D01*
X142658574Y-99169853D01*
X142919727Y-99061680D01*
X143154759Y-98904637D01*
X143354637Y-98704759D01*
X143511680Y-98469727D01*
X143619853Y-98208574D01*
X143675000Y-97931335D01*
X143675000Y-97648665D01*
X143619853Y-97371426D01*
X143511680Y-97110273D01*
X143354637Y-96875241D01*
X143154759Y-96675363D01*
X142922241Y-96520000D01*
X143154759Y-96364637D01*
X143354637Y-96164759D01*
X143511680Y-95929727D01*
X143619853Y-95668574D01*
X143675000Y-95391335D01*
X143675000Y-95108665D01*
X143630430Y-94884600D01*
X145974499Y-94884600D01*
X148120900Y-97031002D01*
X148144699Y-97060001D01*
X148260424Y-97154974D01*
X148392453Y-97225546D01*
X148535714Y-97269003D01*
X148577204Y-97273089D01*
X148706525Y-97466632D01*
X148913368Y-97673475D01*
X149095534Y-97795195D01*
X148978645Y-97864822D01*
X148762412Y-98059731D01*
X148588359Y-98293080D01*
X148463175Y-98555901D01*
X148418524Y-98703110D01*
X148539845Y-98933000D01*
X149733000Y-98933000D01*
X149733000Y-98913000D01*
X149987000Y-98913000D01*
X149987000Y-98933000D01*
X151180155Y-98933000D01*
X151301476Y-98703110D01*
X151256825Y-98555901D01*
X151131641Y-98293080D01*
X150957588Y-98059731D01*
X150741355Y-97864822D01*
X150624466Y-97795195D01*
X150806632Y-97673475D01*
X151013475Y-97466632D01*
X151175990Y-97223411D01*
X151287932Y-96953158D01*
X151345000Y-96666260D01*
X151345000Y-96373740D01*
X151287932Y-96086842D01*
X151175990Y-95816589D01*
X151013475Y-95573368D01*
X150806632Y-95366525D01*
X150632240Y-95250000D01*
X150806632Y-95133475D01*
X151013475Y-94926632D01*
X151175990Y-94683411D01*
X151287932Y-94413158D01*
X151345000Y-94126260D01*
X151345000Y-93833740D01*
X151287932Y-93546842D01*
X151175990Y-93276589D01*
X151013475Y-93033368D01*
X150881620Y-92901513D01*
X150954180Y-92879502D01*
X151064494Y-92820537D01*
X151161185Y-92741185D01*
X151240537Y-92644494D01*
X151299502Y-92534180D01*
X151335812Y-92414482D01*
X151348072Y-92290000D01*
X151348072Y-90590000D01*
X151335812Y-90465518D01*
X151299502Y-90345820D01*
X151240537Y-90235506D01*
X151161185Y-90138815D01*
X151064494Y-90059463D01*
X150954180Y-90000498D01*
X150834482Y-89964188D01*
X150710000Y-89951928D01*
X149010000Y-89951928D01*
X148885518Y-89964188D01*
X148765820Y-90000498D01*
X148655506Y-90059463D01*
X148558815Y-90138815D01*
X148479463Y-90235506D01*
X148420498Y-90345820D01*
X148384188Y-90465518D01*
X148371928Y-90590000D01*
X148371928Y-92290000D01*
X148384188Y-92414482D01*
X148420498Y-92534180D01*
X148479463Y-92644494D01*
X148558815Y-92741185D01*
X148655506Y-92820537D01*
X148765820Y-92879502D01*
X148838380Y-92901513D01*
X148706525Y-93033368D01*
X148544010Y-93276589D01*
X148432068Y-93546842D01*
X148375000Y-93833740D01*
X148375000Y-94126260D01*
X148432068Y-94413158D01*
X148544010Y-94683411D01*
X148706525Y-94926632D01*
X148913368Y-95133475D01*
X149087760Y-95250000D01*
X148913368Y-95366525D01*
X148759697Y-95520196D01*
X146853104Y-93613603D01*
X146829301Y-93584599D01*
X146713576Y-93489626D01*
X146581547Y-93419054D01*
X146438286Y-93375597D01*
X146326633Y-93364600D01*
X146326622Y-93364600D01*
X146289300Y-93360924D01*
X146251978Y-93364600D01*
X143522088Y-93364600D01*
X143619853Y-93128574D01*
X143675000Y-92851335D01*
X143675000Y-92568665D01*
X143619853Y-92291426D01*
X143511680Y-92030273D01*
X143354637Y-91795241D01*
X143154759Y-91595363D01*
X142922241Y-91440000D01*
X143154759Y-91284637D01*
X143354637Y-91084759D01*
X143511680Y-90849727D01*
X143619853Y-90588574D01*
X143675000Y-90311335D01*
X143675000Y-90028665D01*
X143619853Y-89751426D01*
X143511680Y-89490273D01*
X143508895Y-89486106D01*
X148522799Y-84472203D01*
X148544010Y-84523411D01*
X148706525Y-84766632D01*
X148913368Y-84973475D01*
X149156589Y-85135990D01*
X149426842Y-85247932D01*
X149713740Y-85305000D01*
X150006260Y-85305000D01*
X150293158Y-85247932D01*
X150563411Y-85135990D01*
X150806632Y-84973475D01*
X151013475Y-84766632D01*
X151175990Y-84523411D01*
X151287932Y-84253158D01*
X151345000Y-83966260D01*
X151345000Y-83673740D01*
X151287932Y-83386842D01*
X151175990Y-83116589D01*
X151013475Y-82873368D01*
X151008704Y-82868597D01*
X151572302Y-82304999D01*
X151601301Y-82281201D01*
X151646085Y-82226632D01*
X151696274Y-82165477D01*
X151766846Y-82033447D01*
X151773959Y-82009999D01*
X151810303Y-81890186D01*
X151821300Y-81778533D01*
X151821300Y-81778523D01*
X151824976Y-81741200D01*
X151821300Y-81703877D01*
X151821300Y-73166622D01*
X151824976Y-73129299D01*
X151821300Y-73091976D01*
X151821300Y-73091967D01*
X151810303Y-72980314D01*
X151766846Y-72837053D01*
X151754671Y-72814276D01*
X151696274Y-72705023D01*
X151625099Y-72618297D01*
X151601301Y-72589299D01*
X151572304Y-72565502D01*
X151272151Y-72265349D01*
X151299502Y-72214180D01*
X151335812Y-72094482D01*
X151348072Y-71970000D01*
X151348072Y-70270000D01*
X151335812Y-70145518D01*
X151299502Y-70025820D01*
X151240537Y-69915506D01*
X151161185Y-69818815D01*
X151064494Y-69739463D01*
X150954180Y-69680498D01*
X150834482Y-69644188D01*
X150710000Y-69631928D01*
X149010000Y-69631928D01*
X148885518Y-69644188D01*
X148765820Y-69680498D01*
X148655506Y-69739463D01*
X148558815Y-69818815D01*
X148479463Y-69915506D01*
X148420498Y-70025820D01*
X148384188Y-70145518D01*
X148371928Y-70270000D01*
X148371928Y-71970000D01*
X148384188Y-72094482D01*
X148420498Y-72214180D01*
X148479463Y-72324494D01*
X148558815Y-72421185D01*
X148655506Y-72500537D01*
X148765820Y-72559502D01*
X148838380Y-72581513D01*
X148706525Y-72713368D01*
X148544010Y-72956589D01*
X148432068Y-73226842D01*
X148375000Y-73513740D01*
X148375000Y-73806260D01*
X148432068Y-74093158D01*
X148544010Y-74363411D01*
X148706525Y-74606632D01*
X148913368Y-74813475D01*
X149095534Y-74935195D01*
X148978645Y-75004822D01*
X148762412Y-75199731D01*
X148588359Y-75433080D01*
X148463175Y-75695901D01*
X148418524Y-75843110D01*
X148539845Y-76073000D01*
X149733000Y-76073000D01*
X149733000Y-76053000D01*
X149987000Y-76053000D01*
X149987000Y-76073000D01*
X150007000Y-76073000D01*
X150007000Y-76327000D01*
X149987000Y-76327000D01*
X149987000Y-76347000D01*
X149733000Y-76347000D01*
X149733000Y-76327000D01*
X148539845Y-76327000D01*
X148418524Y-76556890D01*
X148463175Y-76704099D01*
X148588359Y-76966920D01*
X148762412Y-77200269D01*
X148978645Y-77395178D01*
X149095534Y-77464805D01*
X148913368Y-77586525D01*
X148706525Y-77793368D01*
X148581822Y-77980000D01*
X143824802Y-77980000D01*
X143638688Y-77793886D01*
X143675000Y-77611335D01*
X143675000Y-77328665D01*
X143619853Y-77051426D01*
X143511680Y-76790273D01*
X143354637Y-76555241D01*
X143154759Y-76355363D01*
X142922241Y-76200000D01*
X143154759Y-76044637D01*
X143354637Y-75844759D01*
X143511680Y-75609727D01*
X143619853Y-75348574D01*
X143675000Y-75071335D01*
X143675000Y-74788665D01*
X143619853Y-74511426D01*
X143511680Y-74250273D01*
X143354637Y-74015241D01*
X143154759Y-73815363D01*
X142920872Y-73659085D01*
X142981514Y-73626671D01*
X143053097Y-73382702D01*
X142240000Y-72569605D01*
X141426903Y-73382702D01*
X141498486Y-73626671D01*
X141562992Y-73657194D01*
X141560273Y-73658320D01*
X141325241Y-73815363D01*
X141125363Y-74015241D01*
X140968320Y-74250273D01*
X140860147Y-74511426D01*
X140805000Y-74788665D01*
X140805000Y-75071335D01*
X140860147Y-75348574D01*
X140968320Y-75609727D01*
X141125363Y-75844759D01*
X141325241Y-76044637D01*
X141557759Y-76200000D01*
X141325241Y-76355363D01*
X141125363Y-76555241D01*
X140968320Y-76790273D01*
X140860147Y-77051426D01*
X140805000Y-77328665D01*
X140805000Y-77611335D01*
X140860147Y-77888574D01*
X140968320Y-78149727D01*
X141125363Y-78384759D01*
X141325241Y-78584637D01*
X141557759Y-78740000D01*
X141325241Y-78895363D01*
X141125363Y-79095241D01*
X140968320Y-79330273D01*
X140860147Y-79591426D01*
X140805000Y-79868665D01*
X140805000Y-80151335D01*
X140860147Y-80428574D01*
X140898017Y-80520000D01*
X128584802Y-80520000D01*
X128398688Y-80333886D01*
X128435000Y-80151335D01*
X128435000Y-79868665D01*
X128379853Y-79591426D01*
X128271680Y-79330273D01*
X128114637Y-79095241D01*
X127914759Y-78895363D01*
X127680872Y-78739085D01*
X127741514Y-78706671D01*
X127813097Y-78462702D01*
X127000000Y-77649605D01*
X126186903Y-78462702D01*
X126258486Y-78706671D01*
X126322992Y-78737194D01*
X126320273Y-78738320D01*
X126085241Y-78895363D01*
X125885363Y-79095241D01*
X125728320Y-79330273D01*
X125620147Y-79591426D01*
X125565000Y-79868665D01*
X125565000Y-80151335D01*
X125609570Y-80375400D01*
X125038502Y-80375400D01*
X124162104Y-79499002D01*
X124138301Y-79469999D01*
X124022576Y-79375026D01*
X123890547Y-79304454D01*
X123747286Y-79260997D01*
X123635633Y-79250000D01*
X123635622Y-79250000D01*
X123598300Y-79246324D01*
X123560978Y-79250000D01*
X123261983Y-79250000D01*
X123299853Y-79158574D01*
X123355000Y-78881335D01*
X123355000Y-78598665D01*
X123299853Y-78321426D01*
X123191680Y-78060273D01*
X123034637Y-77825241D01*
X122834759Y-77625363D01*
X122707771Y-77540512D01*
X125559783Y-77540512D01*
X125601213Y-77820130D01*
X125696397Y-78086292D01*
X125763329Y-78211514D01*
X126007298Y-78283097D01*
X126820395Y-77470000D01*
X127179605Y-77470000D01*
X127992702Y-78283097D01*
X128236671Y-78211514D01*
X128357571Y-77956004D01*
X128426300Y-77681816D01*
X128440217Y-77399488D01*
X128398787Y-77119870D01*
X128303603Y-76853708D01*
X128236671Y-76728486D01*
X127992702Y-76656903D01*
X127179605Y-77470000D01*
X126820395Y-77470000D01*
X126007298Y-76656903D01*
X125763329Y-76728486D01*
X125642429Y-76983996D01*
X125573700Y-77258184D01*
X125559783Y-77540512D01*
X122707771Y-77540512D01*
X122602241Y-77470000D01*
X122834759Y-77314637D01*
X123034637Y-77114759D01*
X123191680Y-76879727D01*
X123299853Y-76618574D01*
X123355000Y-76341335D01*
X123355000Y-76058665D01*
X123327955Y-75922702D01*
X126186903Y-75922702D01*
X126258486Y-76166671D01*
X126324636Y-76197971D01*
X126258486Y-76233329D01*
X126186903Y-76477298D01*
X127000000Y-77290395D01*
X127813097Y-76477298D01*
X127741514Y-76233329D01*
X127675364Y-76202029D01*
X127741514Y-76166671D01*
X127813097Y-75922702D01*
X127000000Y-75109605D01*
X126186903Y-75922702D01*
X123327955Y-75922702D01*
X123299853Y-75781426D01*
X123191680Y-75520273D01*
X123034637Y-75285241D01*
X122834759Y-75085363D01*
X122707771Y-75000512D01*
X125559783Y-75000512D01*
X125601213Y-75280130D01*
X125696397Y-75546292D01*
X125763329Y-75671514D01*
X126007298Y-75743097D01*
X126820395Y-74930000D01*
X127179605Y-74930000D01*
X127992702Y-75743097D01*
X128236671Y-75671514D01*
X128357571Y-75416004D01*
X128426300Y-75141816D01*
X128440217Y-74859488D01*
X128398787Y-74579870D01*
X128303603Y-74313708D01*
X128236671Y-74188486D01*
X127992702Y-74116903D01*
X127179605Y-74930000D01*
X126820395Y-74930000D01*
X126007298Y-74116903D01*
X125763329Y-74188486D01*
X125642429Y-74443996D01*
X125573700Y-74718184D01*
X125559783Y-75000512D01*
X122707771Y-75000512D01*
X122602241Y-74930000D01*
X122834759Y-74774637D01*
X123034637Y-74574759D01*
X123191680Y-74339727D01*
X123299853Y-74078574D01*
X123355000Y-73801335D01*
X123355000Y-73518665D01*
X123299853Y-73241426D01*
X123191680Y-72980273D01*
X123034637Y-72745241D01*
X122834759Y-72545363D01*
X122602241Y-72390000D01*
X122834759Y-72234637D01*
X123034637Y-72034759D01*
X123191680Y-71799727D01*
X123299853Y-71538574D01*
X123355000Y-71261335D01*
X123355000Y-70978665D01*
X123299853Y-70701426D01*
X123191680Y-70440273D01*
X123034637Y-70205241D01*
X122834759Y-70005363D01*
X122602241Y-69850000D01*
X122834759Y-69694637D01*
X123034637Y-69494759D01*
X123191680Y-69259727D01*
X123278551Y-69050000D01*
X125561928Y-69050000D01*
X125561928Y-70650000D01*
X125574188Y-70774482D01*
X125610498Y-70894180D01*
X125669463Y-71004494D01*
X125748815Y-71101185D01*
X125845506Y-71180537D01*
X125955820Y-71239502D01*
X126075518Y-71275812D01*
X126083961Y-71276643D01*
X125885363Y-71475241D01*
X125728320Y-71710273D01*
X125620147Y-71971426D01*
X125565000Y-72248665D01*
X125565000Y-72531335D01*
X125620147Y-72808574D01*
X125728320Y-73069727D01*
X125885363Y-73304759D01*
X126085241Y-73504637D01*
X126319128Y-73660915D01*
X126258486Y-73693329D01*
X126186903Y-73937298D01*
X127000000Y-74750395D01*
X127813097Y-73937298D01*
X127741514Y-73693329D01*
X127677008Y-73662806D01*
X127679727Y-73661680D01*
X127914759Y-73504637D01*
X128114637Y-73304759D01*
X128238490Y-73119400D01*
X128419789Y-73119400D01*
X128463726Y-73163337D01*
X128633244Y-73276605D01*
X128821602Y-73354626D01*
X129021561Y-73394400D01*
X129225439Y-73394400D01*
X129425398Y-73354626D01*
X129613756Y-73276605D01*
X129783274Y-73163337D01*
X129927437Y-73019174D01*
X130040705Y-72849656D01*
X130118726Y-72661298D01*
X130158500Y-72461339D01*
X130158500Y-72460512D01*
X140799783Y-72460512D01*
X140841213Y-72740130D01*
X140936397Y-73006292D01*
X141003329Y-73131514D01*
X141247298Y-73203097D01*
X142060395Y-72390000D01*
X142419605Y-72390000D01*
X143232702Y-73203097D01*
X143476671Y-73131514D01*
X143597571Y-72876004D01*
X143666300Y-72601816D01*
X143680217Y-72319488D01*
X143638787Y-72039870D01*
X143543603Y-71773708D01*
X143476671Y-71648486D01*
X143232702Y-71576903D01*
X142419605Y-72390000D01*
X142060395Y-72390000D01*
X141247298Y-71576903D01*
X141003329Y-71648486D01*
X140882429Y-71903996D01*
X140813700Y-72178184D01*
X140799783Y-72460512D01*
X130158500Y-72460512D01*
X130158500Y-72257461D01*
X130118726Y-72057502D01*
X130040705Y-71869144D01*
X129927437Y-71699626D01*
X129783274Y-71555463D01*
X129613756Y-71442195D01*
X129425398Y-71364174D01*
X129225439Y-71324400D01*
X129021561Y-71324400D01*
X128821602Y-71364174D01*
X128633244Y-71442195D01*
X128463726Y-71555463D01*
X128419789Y-71599400D01*
X128197597Y-71599400D01*
X128114637Y-71475241D01*
X127916039Y-71276643D01*
X127924482Y-71275812D01*
X128044180Y-71239502D01*
X128154494Y-71180537D01*
X128251185Y-71101185D01*
X128330537Y-71004494D01*
X128389502Y-70894180D01*
X128425812Y-70774482D01*
X128438072Y-70650000D01*
X128438072Y-69708665D01*
X140805000Y-69708665D01*
X140805000Y-69991335D01*
X140860147Y-70268574D01*
X140968320Y-70529727D01*
X141125363Y-70764759D01*
X141325241Y-70964637D01*
X141559128Y-71120915D01*
X141498486Y-71153329D01*
X141426903Y-71397298D01*
X142240000Y-72210395D01*
X143053097Y-71397298D01*
X142981514Y-71153329D01*
X142917008Y-71122806D01*
X142919727Y-71121680D01*
X143154759Y-70964637D01*
X143354637Y-70764759D01*
X143511680Y-70529727D01*
X143619853Y-70268574D01*
X143675000Y-69991335D01*
X143675000Y-69708665D01*
X143619853Y-69431426D01*
X143511680Y-69170273D01*
X143354637Y-68935241D01*
X143154759Y-68735363D01*
X142919727Y-68578320D01*
X142658574Y-68470147D01*
X142381335Y-68415000D01*
X142098665Y-68415000D01*
X141821426Y-68470147D01*
X141560273Y-68578320D01*
X141325241Y-68735363D01*
X141125363Y-68935241D01*
X140968320Y-69170273D01*
X140860147Y-69431426D01*
X140805000Y-69708665D01*
X128438072Y-69708665D01*
X128438072Y-69050000D01*
X128425812Y-68925518D01*
X128389502Y-68805820D01*
X128330537Y-68695506D01*
X128251185Y-68598815D01*
X128154494Y-68519463D01*
X128044180Y-68460498D01*
X127924482Y-68424188D01*
X127800000Y-68411928D01*
X126200000Y-68411928D01*
X126075518Y-68424188D01*
X125955820Y-68460498D01*
X125845506Y-68519463D01*
X125748815Y-68598815D01*
X125669463Y-68695506D01*
X125610498Y-68805820D01*
X125574188Y-68925518D01*
X125561928Y-69050000D01*
X123278551Y-69050000D01*
X123299853Y-68998574D01*
X123355000Y-68721335D01*
X123355000Y-68438665D01*
X123299853Y-68161426D01*
X123191680Y-67900273D01*
X123034637Y-67665241D01*
X122834759Y-67465363D01*
X122599727Y-67308320D01*
X122338574Y-67200147D01*
X122061335Y-67145000D01*
X121778665Y-67145000D01*
X121501426Y-67200147D01*
X121240273Y-67308320D01*
X121005241Y-67465363D01*
X120805363Y-67665241D01*
X120648320Y-67900273D01*
X120540147Y-68161426D01*
X120485000Y-68438665D01*
X120485000Y-68721335D01*
X120540147Y-68998574D01*
X120648320Y-69259727D01*
X120805363Y-69494759D01*
X121005241Y-69694637D01*
X121237759Y-69850000D01*
X121005241Y-70005363D01*
X120805363Y-70205241D01*
X120648320Y-70440273D01*
X120540147Y-70701426D01*
X120485000Y-70978665D01*
X120485000Y-71261335D01*
X120540147Y-71538574D01*
X120648320Y-71799727D01*
X120805363Y-72034759D01*
X121005241Y-72234637D01*
X121237759Y-72390000D01*
X121005241Y-72545363D01*
X120805363Y-72745241D01*
X120648320Y-72980273D01*
X120540147Y-73241426D01*
X120485000Y-73518665D01*
X120485000Y-73801335D01*
X120540147Y-74078574D01*
X120648320Y-74339727D01*
X120805363Y-74574759D01*
X121005241Y-74774637D01*
X121237759Y-74930000D01*
X121005241Y-75085363D01*
X120805363Y-75285241D01*
X120648320Y-75520273D01*
X120540147Y-75781426D01*
X120485000Y-76058665D01*
X120485000Y-76341335D01*
X120540147Y-76618574D01*
X120648320Y-76879727D01*
X120805363Y-77114759D01*
X121005241Y-77314637D01*
X121237759Y-77470000D01*
X121005241Y-77625363D01*
X120805363Y-77825241D01*
X120648320Y-78060273D01*
X120540147Y-78321426D01*
X120499080Y-78527879D01*
X120332500Y-78361299D01*
X120332500Y-78299161D01*
X120292726Y-78099202D01*
X120214705Y-77910844D01*
X120101437Y-77741326D01*
X119957274Y-77597163D01*
X119787756Y-77483895D01*
X119599398Y-77405874D01*
X119399439Y-77366100D01*
X119195561Y-77366100D01*
X118995602Y-77405874D01*
X118807244Y-77483895D01*
X118637726Y-77597163D01*
X118493563Y-77741326D01*
X118380295Y-77910844D01*
X118302274Y-78099202D01*
X118262500Y-78299161D01*
X118262500Y-78503039D01*
X118302274Y-78702998D01*
X118380295Y-78891356D01*
X118493563Y-79060874D01*
X118637726Y-79205037D01*
X118807244Y-79318305D01*
X118995602Y-79396326D01*
X119195561Y-79436100D01*
X119257699Y-79436100D01*
X120342600Y-80521002D01*
X120366399Y-80550001D01*
X120438105Y-80608849D01*
X120370424Y-80645026D01*
X120254699Y-80739999D01*
X120230901Y-80768997D01*
X119354599Y-81645300D01*
X108070450Y-81645300D01*
X108115000Y-81421335D01*
X108115000Y-81138665D01*
X108059853Y-80861426D01*
X107971076Y-80647100D01*
X116158089Y-80647100D01*
X116202026Y-80691037D01*
X116371544Y-80804305D01*
X116559902Y-80882326D01*
X116759861Y-80922100D01*
X116963739Y-80922100D01*
X117163698Y-80882326D01*
X117352056Y-80804305D01*
X117521574Y-80691037D01*
X117665737Y-80546874D01*
X117779005Y-80377356D01*
X117857026Y-80188998D01*
X117896800Y-79989039D01*
X117896800Y-79785161D01*
X117857026Y-79585202D01*
X117779005Y-79396844D01*
X117665737Y-79227326D01*
X117521574Y-79083163D01*
X117352056Y-78969895D01*
X117163698Y-78891874D01*
X116963739Y-78852100D01*
X116759861Y-78852100D01*
X116559902Y-78891874D01*
X116371544Y-78969895D01*
X116202026Y-79083163D01*
X116158089Y-79127100D01*
X108060360Y-79127100D01*
X108071904Y-79089039D01*
X107949915Y-78867000D01*
X106807000Y-78867000D01*
X106807000Y-78887000D01*
X106553000Y-78887000D01*
X106553000Y-78867000D01*
X105410085Y-78867000D01*
X105288096Y-79089039D01*
X105299640Y-79127100D01*
X105253202Y-79127100D01*
X103339104Y-77213003D01*
X103315301Y-77183999D01*
X103199576Y-77089026D01*
X103067547Y-77018454D01*
X102924286Y-76974997D01*
X102882796Y-76970911D01*
X102753475Y-76777368D01*
X102546632Y-76570525D01*
X102372240Y-76454000D01*
X102546632Y-76337475D01*
X102753475Y-76130632D01*
X102801561Y-76058665D01*
X105245000Y-76058665D01*
X105245000Y-76341335D01*
X105300147Y-76618574D01*
X105408320Y-76879727D01*
X105565363Y-77114759D01*
X105765241Y-77314637D01*
X106000273Y-77471680D01*
X106010865Y-77476067D01*
X105824869Y-77587615D01*
X105616481Y-77776586D01*
X105448963Y-78002580D01*
X105328754Y-78256913D01*
X105288096Y-78390961D01*
X105410085Y-78613000D01*
X106553000Y-78613000D01*
X106553000Y-78593000D01*
X106807000Y-78593000D01*
X106807000Y-78613000D01*
X107949915Y-78613000D01*
X108071904Y-78390961D01*
X108031246Y-78256913D01*
X107911037Y-78002580D01*
X107743519Y-77776586D01*
X107535131Y-77587615D01*
X107349135Y-77476067D01*
X107359727Y-77471680D01*
X107594759Y-77314637D01*
X107794637Y-77114759D01*
X107951680Y-76879727D01*
X108059853Y-76618574D01*
X108115000Y-76341335D01*
X108115000Y-76058665D01*
X108059853Y-75781426D01*
X107951680Y-75520273D01*
X107794637Y-75285241D01*
X107594759Y-75085363D01*
X107359727Y-74928320D01*
X107349135Y-74923933D01*
X107535131Y-74812385D01*
X107743519Y-74623414D01*
X107911037Y-74397420D01*
X108031246Y-74143087D01*
X108071904Y-74009039D01*
X107949915Y-73787000D01*
X106807000Y-73787000D01*
X106807000Y-73807000D01*
X106553000Y-73807000D01*
X106553000Y-73787000D01*
X105410085Y-73787000D01*
X105288096Y-74009039D01*
X105328754Y-74143087D01*
X105448963Y-74397420D01*
X105616481Y-74623414D01*
X105824869Y-74812385D01*
X106010865Y-74923933D01*
X106000273Y-74928320D01*
X105765241Y-75085363D01*
X105565363Y-75285241D01*
X105408320Y-75520273D01*
X105300147Y-75781426D01*
X105245000Y-76058665D01*
X102801561Y-76058665D01*
X102915990Y-75887411D01*
X103027932Y-75617158D01*
X103085000Y-75330260D01*
X103085000Y-75037740D01*
X103027932Y-74750842D01*
X102915990Y-74480589D01*
X102753475Y-74237368D01*
X102546632Y-74030525D01*
X102372240Y-73914000D01*
X102546632Y-73797475D01*
X102753475Y-73590632D01*
X102915990Y-73347411D01*
X103027932Y-73077158D01*
X103085000Y-72790260D01*
X103085000Y-72497740D01*
X103027932Y-72210842D01*
X102915990Y-71940589D01*
X102753475Y-71697368D01*
X102546632Y-71490525D01*
X102372240Y-71374000D01*
X102546632Y-71257475D01*
X102753475Y-71050632D01*
X102915990Y-70807411D01*
X103027932Y-70537158D01*
X103085000Y-70250260D01*
X103085000Y-69957740D01*
X103027932Y-69670842D01*
X102915990Y-69400589D01*
X102753475Y-69157368D01*
X102546632Y-68950525D01*
X102303411Y-68788010D01*
X102033158Y-68676068D01*
X101746260Y-68619000D01*
X101453740Y-68619000D01*
X101166842Y-68676068D01*
X100896589Y-68788010D01*
X100653368Y-68950525D01*
X100521513Y-69082380D01*
X100499502Y-69009820D01*
X100440537Y-68899506D01*
X100361185Y-68802815D01*
X100264494Y-68723463D01*
X100154180Y-68664498D01*
X100034482Y-68628188D01*
X99910000Y-68615928D01*
X99345750Y-68619000D01*
X99187000Y-68777750D01*
X99187000Y-69977000D01*
X99207000Y-69977000D01*
X99207000Y-70231000D01*
X99187000Y-70231000D01*
X99187000Y-70251000D01*
X98933000Y-70251000D01*
X98933000Y-70231000D01*
X97733750Y-70231000D01*
X97575000Y-70389750D01*
X97571928Y-70954000D01*
X97584188Y-71078482D01*
X97620498Y-71198180D01*
X97679463Y-71308494D01*
X97758815Y-71405185D01*
X97855506Y-71484537D01*
X97965820Y-71543502D01*
X98038380Y-71565513D01*
X97906525Y-71697368D01*
X97744010Y-71940589D01*
X97632068Y-72210842D01*
X97575000Y-72497740D01*
X97575000Y-72790260D01*
X97632068Y-73077158D01*
X97744010Y-73347411D01*
X97906525Y-73590632D01*
X98113368Y-73797475D01*
X98287760Y-73914000D01*
X98113368Y-74030525D01*
X97906525Y-74237368D01*
X97744010Y-74480589D01*
X97632068Y-74750842D01*
X97575000Y-75037740D01*
X97575000Y-75330260D01*
X97632068Y-75617158D01*
X97744010Y-75887411D01*
X97906525Y-76130632D01*
X98113368Y-76337475D01*
X98287760Y-76454000D01*
X98113368Y-76570525D01*
X97906525Y-76777368D01*
X97744010Y-77020589D01*
X97632068Y-77290842D01*
X97575000Y-77577740D01*
X97575000Y-77870260D01*
X97632068Y-78157158D01*
X97744010Y-78427411D01*
X97906525Y-78670632D01*
X98113368Y-78877475D01*
X98287760Y-78994000D01*
X98113368Y-79110525D01*
X97906525Y-79317368D01*
X97744010Y-79560589D01*
X97632068Y-79830842D01*
X97575000Y-80117740D01*
X97575000Y-80410260D01*
X97632068Y-80697158D01*
X97744010Y-80967411D01*
X97906525Y-81210632D01*
X98113368Y-81417475D01*
X98287760Y-81534000D01*
X98113368Y-81650525D01*
X97906525Y-81857368D01*
X97744010Y-82100589D01*
X97632068Y-82370842D01*
X97575000Y-82657740D01*
X97575000Y-82950260D01*
X97632068Y-83237158D01*
X97744010Y-83507411D01*
X97906525Y-83750632D01*
X98113368Y-83957475D01*
X98287760Y-84074000D01*
X98113368Y-84190525D01*
X97906525Y-84397368D01*
X97744010Y-84640589D01*
X97632068Y-84910842D01*
X97575000Y-85197740D01*
X97575000Y-85490260D01*
X97632068Y-85777158D01*
X97744010Y-86047411D01*
X97906525Y-86290632D01*
X98113368Y-86497475D01*
X98287760Y-86614000D01*
X98113368Y-86730525D01*
X97906525Y-86937368D01*
X97744010Y-87180589D01*
X97632068Y-87450842D01*
X97575000Y-87737740D01*
X97575000Y-88030260D01*
X97632068Y-88317158D01*
X97744010Y-88587411D01*
X97906525Y-88830632D01*
X98113368Y-89037475D01*
X98287760Y-89154000D01*
X98113368Y-89270525D01*
X97906525Y-89477368D01*
X97744010Y-89720589D01*
X97632068Y-89990842D01*
X97575000Y-90277740D01*
X97575000Y-90570260D01*
X97632068Y-90857158D01*
X97744010Y-91127411D01*
X97906525Y-91370632D01*
X98113368Y-91577475D01*
X98287760Y-91694000D01*
X98113368Y-91810525D01*
X97906525Y-92017368D01*
X97744010Y-92260589D01*
X97632068Y-92530842D01*
X97575000Y-92817740D01*
X97575000Y-93110260D01*
X97632068Y-93397158D01*
X97744010Y-93667411D01*
X97882469Y-93874629D01*
X96923403Y-94833696D01*
X96894399Y-94857499D01*
X96857077Y-94902977D01*
X96799426Y-94973224D01*
X96766406Y-95035000D01*
X96728854Y-95105254D01*
X96685397Y-95248515D01*
X96674400Y-95360168D01*
X96674400Y-95360178D01*
X96670724Y-95397500D01*
X96674400Y-95434823D01*
X96674401Y-101268468D01*
X96670724Y-101305800D01*
X96674401Y-101343133D01*
X96681130Y-101411447D01*
X96685398Y-101454785D01*
X96728854Y-101598046D01*
X96799426Y-101730076D01*
X96870601Y-101816802D01*
X96894400Y-101845801D01*
X96923398Y-101869599D01*
X98624088Y-103570290D01*
X98145554Y-103665476D01*
X97575021Y-103901799D01*
X97061554Y-104244886D01*
X96624886Y-104681554D01*
X96281799Y-105195021D01*
X96045476Y-105765554D01*
X95925000Y-106371229D01*
X95925000Y-106988771D01*
X96045476Y-107594446D01*
X96281799Y-108164979D01*
X96624886Y-108678446D01*
X97061554Y-109115114D01*
X97398120Y-109340000D01*
X95660000Y-109340000D01*
X95660000Y-69254000D01*
X97571928Y-69254000D01*
X97575000Y-69818250D01*
X97733750Y-69977000D01*
X98933000Y-69977000D01*
X98933000Y-68777750D01*
X98774250Y-68619000D01*
X98210000Y-68615928D01*
X98085518Y-68628188D01*
X97965820Y-68664498D01*
X97855506Y-68723463D01*
X97758815Y-68802815D01*
X97679463Y-68899506D01*
X97620498Y-69009820D01*
X97584188Y-69129518D01*
X97571928Y-69254000D01*
X95660000Y-69254000D01*
X95660000Y-67780000D01*
X105241928Y-67780000D01*
X105241928Y-69380000D01*
X105254188Y-69504482D01*
X105290498Y-69624180D01*
X105349463Y-69734494D01*
X105428815Y-69831185D01*
X105525506Y-69910537D01*
X105635820Y-69969502D01*
X105755518Y-70005812D01*
X105763961Y-70006643D01*
X105565363Y-70205241D01*
X105408320Y-70440273D01*
X105300147Y-70701426D01*
X105245000Y-70978665D01*
X105245000Y-71261335D01*
X105300147Y-71538574D01*
X105408320Y-71799727D01*
X105565363Y-72034759D01*
X105765241Y-72234637D01*
X106000273Y-72391680D01*
X106010865Y-72396067D01*
X105824869Y-72507615D01*
X105616481Y-72696586D01*
X105448963Y-72922580D01*
X105328754Y-73176913D01*
X105288096Y-73310961D01*
X105410085Y-73533000D01*
X106553000Y-73533000D01*
X106553000Y-73513000D01*
X106807000Y-73513000D01*
X106807000Y-73533000D01*
X107949915Y-73533000D01*
X108071904Y-73310961D01*
X108031246Y-73176913D01*
X107911037Y-72922580D01*
X107743519Y-72696586D01*
X107535131Y-72507615D01*
X107349135Y-72396067D01*
X107359727Y-72391680D01*
X107594759Y-72234637D01*
X107794637Y-72034759D01*
X107951680Y-71799727D01*
X108059853Y-71538574D01*
X108115000Y-71261335D01*
X108115000Y-70978665D01*
X108059853Y-70701426D01*
X107951680Y-70440273D01*
X107794637Y-70205241D01*
X107596039Y-70006643D01*
X107604482Y-70005812D01*
X107724180Y-69969502D01*
X107834494Y-69910537D01*
X107931185Y-69831185D01*
X108010537Y-69734494D01*
X108069502Y-69624180D01*
X108105812Y-69504482D01*
X108118072Y-69380000D01*
X108118072Y-67780000D01*
X108105812Y-67655518D01*
X108069502Y-67535820D01*
X108010537Y-67425506D01*
X107931185Y-67328815D01*
X107834494Y-67249463D01*
X107724180Y-67190498D01*
X107604482Y-67154188D01*
X107480000Y-67141928D01*
X105880000Y-67141928D01*
X105755518Y-67154188D01*
X105635820Y-67190498D01*
X105525506Y-67249463D01*
X105428815Y-67328815D01*
X105349463Y-67425506D01*
X105290498Y-67535820D01*
X105254188Y-67655518D01*
X105241928Y-67780000D01*
X95660000Y-67780000D01*
X95660000Y-60660000D01*
X97724217Y-60660000D01*
X97575021Y-60721799D01*
M02*
